<?xml version="1.0" standalone="no"?>
<!DOCTYPE svg PUBLIC "-//W3C//DTD SVG 20010904//EN"
 "http://www.w3.org/TR/2001/REC-SVG-20010904/DTD/svg10.dtd">
<svg version="1.0" xmlns="http://www.w3.org/2000/svg"
 width="800.000000pt" height="859.000000pt" viewBox="0 0 800.000000 859.000000"
 preserveAspectRatio="xMidYMid meet">
<metadata>
Created by potrace 1.12, written by Peter Selinger 2001-2015
</metadata>
<g transform="translate(0.000000,859.000000) scale(0.100000,-0.100000)"
fill="#000000" stroke="none">
<path d="M620 8196 c0 -254 4 -397 10 -401 7 -4 10 126 10 389 0 244 -4 397
-10 401 -7 4 -10 -136 -10 -389z"/>
<path d="M1871 8081 c1 -281 -2 -343 -14 -367 -17 -34 -33 -111 -42 -207 -5
-53 -3 -73 9 -92 9 -14 20 -64 25 -115 6 -49 13 -96 18 -102 4 -7 8 -96 9
-198 1 -385 6 -565 18 -572 8 -6 7 -10 -2 -16 -9 -6 -11 -30 -5 -98 l7 -89 17
150 c9 83 14 154 11 159 -2 4 -4 32 -3 62 0 29 -4 56 -9 59 -6 4 -9 88 -9 223
1 119 4 205 6 190 2 -16 9 -28 14 -28 6 0 10 -12 9 -27 -1 -16 -1 -41 0 -58 2
-30 2 -30 10 -5 8 29 10 26 35 -74 10 -38 24 -81 32 -96 7 -15 18 -53 24 -83
l12 -57 -37 -37 c-57 -59 -95 -229 -77 -343 10 -63 8 -70 -22 -70 -12 0 -65
-22 -118 -49 -111 -56 -157 -67 -220 -51 -39 10 -54 9 -110 -11 -46 -16 -85
-22 -139 -21 l-75 1 -23 -39 c-12 -22 -37 -48 -56 -57 -46 -25 -217 -209 -273
-296 -26 -39 -64 -95 -85 -123 -26 -35 -38 -62 -39 -85 0 -19 -11 -49 -25 -69
-13 -19 -38 -56 -55 -82 -17 -27 -33 -48 -35 -48 -2 0 -4 116 -4 258 1 247 2
258 22 282 15 18 22 21 26 12 3 -9 11 -3 23 17 10 17 23 31 29 31 21 0 -3 29
-29 35 -24 5 -28 11 -29 47 -1 23 -8 51 -16 63 -8 12 -18 40 -22 61 l-8 39 -7
-40 c-4 -22 -5 -221 -2 -441 4 -287 2 -404 -6 -408 -6 -4 -11 -15 -11 -24 0
-10 -11 -29 -25 -44 -14 -15 -25 -32 -25 -37 0 -6 -12 -17 -28 -25 -35 -18
-58 -44 -67 -76 -3 -14 -22 -55 -41 -91 -19 -37 -34 -76 -34 -86 0 -11 -20
-58 -45 -105 -65 -125 -75 -193 -46 -323 36 -167 49 -199 100 -249 54 -53 78
-63 166 -72 l65 -7 0 -176 c3 -994 1 -1056 -24 -1138 -28 -93 -49 -177 -72
-293 -41 -205 -60 -286 -72 -307 -7 -12 -12 -35 -12 -52 0 -16 -7 -59 -15 -96
-9 -36 -13 -69 -11 -74 3 -4 -6 -18 -21 -30 -23 -21 -25 -27 -19 -73 5 -39 3
-56 -12 -81 -26 -44 -34 -149 -23 -332 10 -172 26 -220 103 -309 43 -50 123
-96 166 -96 l24 0 -4 -172 c-4 -157 -7 -187 -42 -333 -21 -88 -44 -180 -51
-205 -15 -52 -100 -244 -121 -274 -8 -11 -14 -24 -14 -28 0 -5 911 -8 2025 -8
l2026 0 -5 33 c-42 251 -59 334 -75 352 -22 24 -81 147 -81 168 0 9 9 53 21
99 11 46 25 101 29 123 9 41 5 165 -6 209 -6 26 5 33 108 70 57 21 56 21 111
131 l44 90 7 -80 c4 -44 8 -234 9 -422 1 -189 4 -343 7 -343 3 0 14 -22 24
-50 23 -63 18 -132 -17 -225 -14 -39 -29 -89 -33 -113 l-7 -42 228 0 c219 0
228 1 258 22 18 13 34 22 37 21 3 0 4 2 3 6 -1 5 29 14 67 21 87 16 234 9 395
-20 66 -12 127 -23 135 -23 8 -1 21 -8 28 -14 7 -7 18 -13 23 -13 13 0 11 18
-3 23 -7 3 -3 6 10 6 15 1 22 -5 22 -16 0 -15 2 -15 9 -4 8 13 19 13 74 2 78
-15 618 -13 629 3 11 17 209 17 235 1 32 -21 38 -18 19 10 -13 20 -14 23 -1
19 8 -3 17 -14 20 -24 5 -16 17 -19 80 -19 59 0 75 3 75 14 0 8 -7 15 -15 15
-8 0 -15 4 -15 9 0 9 30 25 101 54 40 16 35 -2 63 217 26 199 16 348 -28 414
-11 17 -16 47 -16 93 0 37 -5 75 -10 83 -8 13 -10 13 -10 1 0 -11 -3 -12 -11
-4 -8 8 -1 22 29 51 22 22 44 37 48 33 4 -3 4 -1 0 6 -9 16 14 64 27 56 6 -3
20 6 31 20 15 18 25 24 35 18 11 -7 6 -17 -25 -46 l-39 -38 40 31 c66 50 158
149 150 161 -4 7 -1 10 7 9 17 -4 118 199 153 305 14 43 32 92 42 110 10 20
17 57 17 98 1 37 4 62 8 56 11 -18 29 40 38 123 5 41 12 90 16 107 9 48 -1 75
-40 100 -54 34 -53 100 2 139 27 18 28 56 8 170 -8 44 -17 102 -21 129 -4 28
-18 93 -31 145 -44 173 -56 288 -55 520 0 221 -6 319 -39 570 -24 175 -33 211
-71 263 -16 22 -29 48 -29 58 0 10 -4 20 -9 23 -11 7 -54 136 -48 142 2 3 16
-22 31 -53 41 -86 49 -98 85 -132 25 -24 32 -37 29 -56 -3 -14 -1 -25 4 -25
12 0 58 49 59 64 1 6 3 26 5 44 1 21 13 42 33 61 33 31 45 66 39 111 -3 16 0
32 6 34 7 3 6 5 -1 5 -20 1 -15 35 7 54 14 12 19 24 14 41 -7 29 9 42 26 21
17 -21 40 -19 40 3 0 22 22 72 32 72 4 0 9 -10 12 -22 3 -13 3 13 2 57 -4 95
-40 207 -86 271 -29 40 -41 82 -20 69 6 -4 7 6 3 27 -9 48 -24 71 -18 28 5
-32 4 -31 -10 10 -40 116 -65 201 -65 220 0 60 -92 379 -175 605 -53 143 -147
353 -219 484 -23 43 -101 120 -122 121 -6 0 -32 16 -57 35 -58 45 -118 70
-182 78 -27 4 -102 24 -167 45 -103 34 -123 44 -181 95 -36 31 -79 60 -96 63
-20 4 -38 19 -55 44 -29 44 -80 86 -116 95 -24 6 -25 4 -22 -37 7 -87 -85
-248 -141 -248 -38 0 -150 -45 -196 -78 -60 -44 -93 -43 -53 1 17 19 16 20
-11 13 -17 -4 -26 -3 -23 2 13 21 -17 127 -50 176 -44 66 -51 129 -16 134 42
6 21 35 -40 56 -42 14 -58 25 -62 42 -3 12 -15 26 -26 29 -26 8 -25 16 6 51
14 16 32 39 41 52 8 12 21 22 28 22 22 0 28 39 11 64 -17 26 -6 46 26 46 10 0
18 4 18 10 0 15 -42 50 -61 50 -51 0 -68 35 -21 46 44 10 49 12 20 13 -28 1
-68 31 -68 51 0 6 15 10 33 8 18 -1 39 2 47 7 8 5 30 11 49 14 19 4 36 11 38
17 2 6 -12 28 -32 49 -28 28 -42 35 -59 31 -17 -4 -31 2 -49 20 -22 22 -25 32
-22 82 1 31 11 84 22 117 25 79 46 80 88 6 46 -82 70 -96 164 -94 154 3 192
29 205 141 4 31 13 64 22 73 8 9 12 23 9 31 -14 37 -321 22 -382 -17 -28 -19
-63 -19 -63 -2 0 7 -17 19 -37 26 -48 17 -118 66 -157 110 -23 26 -30 41 -27
67 1 19 -3 58 -10 88 -10 45 -16 56 -36 61 -18 4 -30 0 -40 -12 -14 -17 -14
-17 -10 5 6 25 -5 29 -23 7 -7 -8 -19 -15 -26 -15 -8 0 -14 -8 -14 -18 0 -11
-11 -32 -25 -48 -26 -30 -28 -38 -27 -88 0 -16 -6 -38 -13 -50 -8 -12 -14 -33
-13 -46 3 -39 -13 -122 -30 -159 -14 -31 -14 -36 3 -67 22 -41 15 -51 -19 -28
-15 9 -29 14 -32 11 -3 -3 4 -36 15 -75 12 -38 21 -94 21 -124 0 -74 23 -144
58 -182 16 -17 32 -46 36 -65 15 -84 49 -174 80 -214 23 -31 36 -60 41 -95 7
-50 6 -52 -30 -83 -20 -18 -50 -56 -66 -83 -17 -28 -56 -94 -89 -146 -32 -52
-59 -100 -59 -107 -1 -14 -182 -111 -266 -142 -98 -37 -126 -52 -212 -113 -75
-54 -173 -149 -173 -169 0 -5 9 -26 20 -47 22 -43 45 -111 31 -96 -4 5 -15 30
-25 56 -25 68 -83 128 -162 168 -60 30 -81 35 -156 38 -109 5 -191 -20 -278
-84 -85 -63 -90 -61 -92 39 l-2 82 -3 -77 -4 -78 -52 0 c-32 0 -62 6 -76 16
-12 9 -45 18 -72 20 -31 2 -71 14 -106 33 -55 30 -107 44 -73 20 12 -8 8 -10
-16 -7 l-32 4 -20 -90 c-11 -50 -42 -193 -68 -318 -26 -126 -51 -228 -54 -228
-8 0 -35 60 -46 100 -3 14 -12 32 -20 40 -13 16 -10 33 100 483 l14 58 -50 25
c-102 52 -174 140 -198 242 -14 61 -8 102 26 188 32 81 26 120 -23 133 -19 6
-40 8 -48 5 -7 -3 -16 -1 -19 5 -4 6 -13 8 -20 5 -16 -6 -29 42 -28 104 1 29
-3 40 -10 36 -7 -4 -8 -3 -4 5 4 6 0 18 -8 27 -9 9 -14 20 -11 24 8 13 -28 46
-51 49 -10 1 -34 2 -51 1 -22 0 -33 5 -33 14 0 8 -12 24 -27 36 -19 14 -24 23
-15 26 19 9 14 28 -12 54 -30 27 -52 21 -67 -17 l-11 -28 -10 25 c-5 14 -15
28 -23 33 -24 13 -65 106 -65 147 0 21 11 62 25 92 27 58 38 185 13 160 -18
-18 -26 -15 -43 18 -24 46 -68 63 -159 64 l-79 0 44 38 c24 21 38 38 31 38
-10 0 -10 4 0 20 10 16 10 24 0 40 -6 11 -12 27 -12 36 0 9 -8 23 -17 29 -17
13 -17 14 0 32 9 11 17 25 17 31 0 7 4 12 9 12 5 0 22 11 38 24 15 13 39 27
53 31 14 4 49 18 78 31 208 94 510 -114 612 -421 13 -40 20 -76 16 -93 -4 -15
-3 -22 1 -16 4 7 9 -35 11 -93 2 -85 6 -111 21 -132 11 -15 21 -42 23 -61 2
-23 9 -36 20 -38 15 -3 15 2 -3 49 -11 28 -17 54 -14 57 13 13 38 -30 43 -74
5 -48 17 -68 35 -57 5 3 6 20 2 39 -4 23 0 44 12 66 19 38 28 180 12 209 -7
15 -6 17 6 13 10 -4 15 0 15 14 0 54 -55 212 -79 226 -6 4 -11 16 -11 26 0 11
-6 34 -14 52 -8 18 -24 58 -36 88 -45 111 -70 159 -110 209 -52 66 -113 111
-141 104 -11 -3 -38 0 -59 7 -32 10 -42 11 -55 0 -8 -7 -25 -10 -39 -6 -14 3
-27 2 -31 -4 -10 -16 -99 -52 -103 -41 -2 6 -13 4 -27 -5 -23 -15 -26 -14 -52
10 -30 28 -48 34 -38 14 4 -7 -3 -3 -14 10 -11 13 -32 25 -47 28 -15 3 -31 7
-36 10 -4 3 -18 -2 -30 -10 -12 -9 -32 -16 -43 -16 -15 0 -17 -2 -6 -9 10 -6
5 -11 -19 -16 -23 -5 -35 -3 -41 6 -5 9 -9 10 -9 3 0 -7 -7 -14 -14 -17 -11
-4 -13 -1 -9 11 6 14 5 15 -9 2 -9 -8 -14 -18 -12 -22 2 -3 -22 -35 -54 -71
-85 -98 -127 -156 -152 -214 -12 -29 -29 -58 -38 -65 -13 -11 -14 -10 -6 7 12
28 6 625 -7 625 -6 0 -9 -121 -8 -339z m4057 -278 c15 -21 16 -99 1 -142 -16
-46 -58 -63 -166 -69 l-92 -5 -35 35 c-42 42 -64 107 -48 143 12 27 36 39 98
51 l39 7 -32 -27 c-47 -39 -44 -75 8 -127 38 -38 73 -48 75 -21 1 6 2 17 3 22
0 6 6 10 12 10 15 0 36 23 32 36 -2 6 3 17 12 24 12 10 18 10 30 0 8 -7 15 -8
15 -3 0 5 -11 16 -25 23 -14 7 -25 19 -25 26 0 6 -7 14 -15 18 -8 3 -15 11
-15 17 0 18 112 2 128 -18z m-3708 -497 c38 -12 46 -19 51 -47 4 -18 3 -44 -3
-58 -6 -14 -11 -41 -12 -60 -1 -43 -20 -50 -39 -15 -8 15 -32 37 -53 49 -30
17 -39 28 -39 49 1 14 -4 26 -11 26 -14 0 -27 42 -15 50 4 3 10 13 14 22 5 13
11 15 34 7 15 -5 48 -15 73 -23z m306 -361 c4 -8 15 -15 26 -15 10 0 43 -11
72 -24 44 -20 54 -30 60 -57 4 -24 2 -35 -11 -45 -27 -20 -42 -17 -53 10 -13
35 -46 53 -111 61 -61 7 -96 25 -85 43 4 7 20 12 36 12 22 0 28 4 24 15 -4 10
0 15 15 15 12 0 24 -7 27 -15z m225 -201 c10 -9 30 -16 43 -16 14 0 31 -7 37
-14 10 -12 9 -13 -5 -8 -14 5 -15 3 -6 -20 7 -18 6 -26 -1 -26 -6 0 -9 -9 -6
-20 3 -11 2 -20 -2 -20 -5 0 -15 -17 -25 -37 -23 -53 -43 -86 -59 -98 -7 -5
-20 -23 -28 -40 -11 -22 -21 -29 -37 -28 -12 2 -22 -2 -22 -7 0 -18 -53 -33
-72 -21 -12 7 -18 8 -18 1 0 -17 -25 -11 -44 11 -15 18 -16 23 -5 31 10 6 7 7
-8 3 -25 -7 -26 -5 -17 19 3 8 12 12 20 9 10 -4 14 2 14 20 0 14 4 28 9 32 5
3 15 22 22 42 13 41 31 63 50 63 8 0 10 12 6 38 -3 20 -3 31 0 25 6 -16 33
-17 33 -3 0 7 6 7 20 0 17 -9 20 -8 20 8 0 28 11 34 26 14 13 -16 14 -16 12 3
-4 57 10 69 43 39z m3561 -179 c14 -8 34 -15 43 -15 10 0 13 -5 9 -12 -4 -6
-3 -8 4 -4 19 12 80 -28 108 -71 15 -24 30 -43 35 -43 17 0 86 -112 121 -200
22 -52 53 -124 71 -160 18 -36 32 -70 32 -76 0 -6 5 -18 11 -25 6 -8 23 -66
39 -129 15 -63 31 -119 35 -125 4 -5 11 -35 15 -65 4 -30 11 -61 16 -70 11
-20 42 -226 40 -270 0 -19 3 -48 8 -65 9 -29 9 -29 11 -5 1 14 8 -9 15 -50 8
-41 12 -76 9 -79 -2 -2 -4 4 -4 14 0 10 -3 16 -6 12 -7 -7 10 -146 32 -253 7
-39 18 -116 24 -170 16 -154 32 -254 41 -260 5 -3 7 -10 3 -15 -3 -5 0 -17 7
-25 7 -8 14 -26 15 -40 1 -13 14 -50 29 -81 18 -40 29 -53 36 -46 8 8 17 5 31
-9 23 -23 15 -37 -12 -20 -11 7 -26 12 -34 12 -8 0 -17 6 -20 13 -3 6 -3 1 0
-12 4 -16 3 -21 -5 -17 -14 9 -14 -3 0 -43 12 -35 25 -40 32 -13 3 9 5 4 6
-13 0 -55 12 -129 21 -141 6 -6 7 -14 3 -17 -3 -4 -2 -7 4 -7 5 0 7 -14 5 -32
-4 -25 -2 -30 11 -25 20 8 35 -51 35 -141 0 -37 3 -74 7 -83 3 -9 2 -41 -3
-70 -6 -29 -8 -59 -5 -66 3 -7 0 -13 -7 -13 -9 0 -11 -12 -7 -39 2 -22 1 -43
-3 -48 -4 -4 -15 -29 -25 -55 -10 -27 -21 -48 -26 -48 -5 0 -25 -25 -44 -56
-41 -64 -54 -66 -29 -5 9 23 15 43 13 45 -2 2 -24 -6 -49 -17 -25 -11 -47 -21
-50 -22 -25 -5 -53 -32 -70 -65 -11 -22 -23 -40 -26 -40 -2 0 0 9 6 21 17 30
7 33 -26 7 l-29 -22 24 27 c24 27 24 27 3 27 -24 0 -30 25 -8 33 8 3 22 20 31
39 44 82 75 149 75 162 0 14 29 31 37 22 3 -2 -1 -14 -7 -26 -15 -28 -9 -75
10 -75 9 0 21 18 29 45 8 25 19 48 24 51 14 9 20 159 7 159 -5 0 -10 -8 -10
-18 0 -9 -9 -23 -21 -30 -20 -13 -21 -12 -18 31 2 25 0 43 -5 40 -5 -4 -6 6
-2 22 4 15 3 31 -2 34 -6 4 -7 27 -2 56 8 50 4 75 -10 75 -12 0 -20 -28 -26
-94 -2 -33 -9 -63 -15 -66 -6 -4 -6 -15 1 -31 8 -19 10 -20 7 -3 -3 13 1 21 9
21 17 0 17 -2 3 -30 -22 -40 -46 -48 -46 -14 0 12 -1 36 -3 52 l-2 30 -8 -30
c-4 -16 -9 -64 -10 -105 -2 -58 -4 -67 -9 -40 -7 35 -7 35 -14 -16 -4 -29 -14
-57 -22 -64 -16 -13 -21 -45 -6 -35 5 3 2 -13 -6 -35 -12 -30 -13 -44 -5 -52
8 -8 14 -3 23 18 22 54 32 74 37 69 6 -6 -17 -62 -45 -107 -13 -21 -23 -51
-23 -67 0 -16 -4 -32 -9 -35 -13 -8 -20 39 -9 58 5 9 8 21 6 27 -2 6 -14 -9
-28 -33 -17 -31 -19 -39 -7 -29 24 19 21 -2 -3 -24 -11 -10 -20 -24 -20 -32 0
-8 -4 -12 -9 -9 -5 3 -25 -14 -46 -39 -20 -25 -41 -45 -47 -45 -5 0 4 16 21
35 17 20 31 42 31 51 0 8 6 17 14 20 21 8 63 112 71 172 4 29 12 67 20 85 17
42 30 167 17 167 -6 0 -17 -21 -26 -47 -19 -54 -20 -67 -6 -58 14 9 12 -16 -5
-45 -17 -29 -20 -19 -4 13 11 21 10 21 -6 5 -11 -10 -18 -33 -19 -62 -1 -36
-4 -46 -16 -43 -8 2 -14 9 -12 16 1 7 -2 10 -8 6 -5 -3 -10 -18 -10 -33 0 -19
-21 -47 -82 -108 -154 -153 -148 -144 -148 -200 0 -48 30 -144 53 -173 10 -12
9 -12 -9 -1 -19 12 -35 39 -49 88 -3 12 -11 22 -16 22 -5 0 -2 -16 6 -36 18
-44 18 -45 2 -38 -17 6 -39 93 -39 152 0 26 11 81 25 122 16 48 21 77 15 81
-7 4 2 32 22 73 32 64 35 91 8 68 -56 -46 -323 -61 -436 -24 -35 11 -61 18
-58 15 3 -3 0 -15 -6 -27 -7 -11 -12 -23 -13 -26 0 -3 -12 -26 -28 -52 -15
-26 -27 -51 -27 -56 0 -5 -7 -15 -15 -22 -12 -10 -15 -10 -15 3 0 9 5 19 10
22 15 9 12 25 -6 25 -9 0 -12 -5 -8 -12 4 -7 3 -8 -4 -4 -7 4 -12 4 -12 -1 0
-4 -12 -21 -26 -38 -27 -32 -23 -18 9 28 10 15 20 33 21 40 6 28 19 47 32 47
8 0 11 -7 8 -17 -3 -10 2 -6 10 8 8 15 18 41 21 59 3 18 8 37 11 41 2 4 -4 13
-14 18 -15 8 -24 5 -41 -13 -11 -12 -21 -29 -21 -37 0 -12 -2 -12 -9 0 -6 9
-4 23 6 38 9 13 14 26 11 28 -3 3 -22 -19 -42 -49 -33 -48 -42 -67 -45 -97 -1
-4 -8 -10 -17 -13 -12 -4 -15 -2 -10 9 3 8 9 22 12 30 4 9 0 15 -9 15 -18 0
-57 -51 -57 -75 0 -9 -4 -14 -9 -11 -5 3 -14 -1 -21 -9 -16 -20 5 -82 31 -90
10 -4 19 -10 19 -15 0 -5 -7 -7 -16 -3 -15 5 -15 3 1 -20 9 -15 22 -27 29 -27
7 0 6 -3 -2 -9 -10 -6 -4 -20 23 -60 19 -29 35 -56 35 -59 0 -3 10 -17 23 -31
19 -22 19 -23 1 -8 -32 26 -48 2 -18 -28 9 -9 13 -19 10 -22 -4 -4 -23 11 -44
32 -20 22 -26 30 -13 20 l24 -20 -7 25 c-5 17 -4 21 2 11 5 -7 12 -9 15 -4 9
14 -22 55 -35 47 -6 -4 -9 -3 -6 2 3 5 -3 18 -13 28 -11 11 -19 14 -19 8 0 -7
-4 -12 -9 -12 -5 0 -21 39 -36 88 -28 91 -47 140 -70 182 -19 36 -34 127 -23
138 6 6 7 20 3 33 -4 13 -7 71 -6 129 2 112 4 135 15 162 4 9 6 25 4 35 -6 30
-32 -25 -33 -72 -1 -22 -2 -76 -3 -119 -1 -44 -5 -77 -8 -74 -3 4 -9 48 -13
100 -4 51 -12 102 -16 112 -6 14 -5 17 3 12 8 -5 12 1 12 16 0 18 2 20 10 8 7
-11 10 -12 10 -2 0 7 7 20 15 28 11 12 12 20 5 35 -7 13 -7 19 0 19 5 0 10 15
11 33 0 17 3 26 6 19 2 -6 8 -10 13 -7 4 3 7 -3 5 -12 -8 -39 -13 -273 -5
-273 11 0 28 79 27 125 -2 60 24 53 38 -10 l12 -50 8 40 c4 22 10 45 14 50 3
6 4 34 2 64 -2 31 1 51 6 48 17 -11 36 -114 31 -166 -3 -29 -2 -54 3 -56 8 -5
13 8 24 63 4 17 11 32 17 32 7 0 8 17 3 46 -3 26 -8 75 -11 110 -4 64 -17 105
-51 156 -21 34 -11 46 27 31 24 -9 30 -9 30 2 0 7 6 15 12 17 8 3 3 13 -13 29
-28 25 -54 115 -40 134 5 5 14 66 20 135 18 176 51 223 133 187 18 -9 43 -18
55 -22 20 -5 21 -3 17 27 -5 29 -2 35 22 46 16 6 37 12 48 12 12 0 28 4 35 9
16 10 17 10 -83 31 -94 20 -129 52 -88 82 20 14 21 60 2 83 -21 25 -1 84 36
108 26 17 32 27 27 45 -3 12 -1 22 5 22 6 0 8 10 5 21 -4 15 1 27 17 39 28 21
21 50 -14 50 -13 0 -26 7 -30 18 -3 9 -13 28 -21 42 -8 13 -12 26 -11 28 2 2
22 3 45 4 33 0 45 6 61 28 29 40 17 64 -27 55 -30 -5 -34 -4 -31 12 2 11 12
18 25 17 17 0 22 5 21 25 -1 14 6 59 16 99 9 40 16 84 16 97 0 41 21 75 47 75
20 0 23 5 23 35 0 31 -3 35 -27 35 -30 0 -63 25 -63 48 0 11 -3 12 -13 3 -10
-8 -35 -5 -98 13 -46 14 -101 27 -121 31 -35 5 -37 7 -25 28 6 12 18 30 26 39
8 10 15 38 17 63 2 25 8 54 13 63 5 9 7 36 4 59 -7 64 14 147 47 183 15 16 23
30 17 30 -7 0 -5 5 3 10 11 7 5 10 -25 10 -35 1 -38 3 -22 13 10 7 26 17 35
24 15 10 14 11 -6 6 -17 -4 -21 -2 -16 10 4 12 11 13 35 5 16 -5 26 -14 23
-19 -6 -10 25 -1 43 13 6 5 12 5 15 -2 1 -5 13 -12 25 -14 12 -3 32 -12 46
-20 22 -15 89 -26 182 -30 22 0 45 -4 51 -8 6 -4 30 -10 52 -14 23 -4 40 -10
37 -14 -2 -4 16 -22 41 -41 25 -19 50 -42 55 -52 9 -16 11 -16 26 -2 14 14 14
18 -3 38 -11 12 -21 24 -24 27 -3 3 -14 19 -24 35 l-19 30 22 -19 c12 -11 29
-20 39 -21 9 0 23 -5 30 -9 26 -16 22 2 -13 54 -49 73 -51 78 -28 58 29 -26
38 -22 17 10 -18 27 -115 129 -100 103 7 -10 4 -12 -13 -6 -12 4 -28 2 -35 -4
-10 -9 -15 -8 -20 4 -3 9 -16 20 -28 25 l-23 10 24 -3 c13 -1 26 4 29 11 3 11
-6 13 -44 8 -84 -11 -130 -15 -104 -9 40 8 51 27 12 19 -18 -3 -31 -2 -28 3 3
5 -11 12 -32 15 -55 10 -73 17 -68 25 8 12 209 -8 238 -24z m-3732 -305 c0
-12 -7 -23 -15 -26 -10 -4 -13 -14 -9 -30 5 -19 0 -26 -32 -41 -37 -17 -64
-60 -30 -47 9 3 16 2 16 -2 0 -13 -72 -74 -80 -69 -5 3 -10 -2 -14 -10 -4 -12
-27 -15 -119 -15 -112 0 -114 0 -112 23 3 26 -17 68 -39 86 -13 11 -16 11 -16
1 0 -7 -13 5 -29 26 -15 21 -40 49 -55 61 -27 24 -34 43 -15 43 5 0 7 -6 3
-12 -4 -8 -3 -9 2 -5 5 5 9 16 9 25 0 12 10 18 36 20 34 3 38 0 69 -50 36 -57
108 -138 123 -138 5 0 5 5 0 13 -15 18 -22 60 -14 81 7 19 8 19 31 -4 l23 -23
-7 27 c-6 25 -5 26 35 26 39 0 41 2 36 25 -5 28 24 58 48 49 6 -3 18 2 25 11
16 19 50 20 50 1 0 -8 4 -17 9 -20 5 -3 9 0 8 7 -2 50 3 53 33 19 17 -18 30
-41 30 -52z m1147 -321 c-26 -23 -29 -31 -18 -38 12 -8 11 -15 -7 -46 l-22
-36 39 6 c23 3 42 1 46 -5 3 -5 -1 -10 -9 -10 -22 0 -20 -33 3 -54 16 -14 17
-22 9 -35 -8 -13 -6 -26 6 -50 16 -31 16 -34 1 -51 -16 -18 -15 -19 17 -22 28
-3 33 -6 30 -27 -2 -19 2 -22 18 -18 11 3 20 1 20 -4 0 -5 6 -9 14 -9 8 0 16
-7 20 -15 8 -22 24 -18 29 8 l4 22 8 -23 c6 -18 10 -20 17 -10 7 10 10 10 19
-4 5 -10 14 -18 19 -18 17 0 11 22 -15 56 -23 30 -20 55 4 39 5 -3 13 -1 16 5
5 8 12 7 23 -2 13 -11 15 -10 9 5 -8 20 13 23 32 5 10 -11 15 -9 29 9 9 13 31
25 49 29 22 4 33 13 36 28 3 17 5 16 6 -6 0 -16 -6 -31 -15 -36 -10 -6 -14
-14 -9 -22 5 -8 10 -9 18 -1 15 15 27 14 27 -4 0 -9 -11 -21 -25 -27 -22 -10
-36 -48 -17 -48 4 0 12 -12 19 -26 11 -23 9 -26 -23 -41 -30 -15 -35 -23 -45
-75 -6 -32 -14 -58 -18 -58 -3 0 -7 19 -9 42 -1 22 -5 45 -8 50 -3 4 -31 8
-63 8 -107 0 -205 28 -282 81 -53 37 -134 -9 -369 -211 -36 -31 -83 -69 -105
-85 l-40 -30 25 30 c13 17 62 61 107 99 46 38 81 71 79 73 -2 3 -56 -37 -119
-89 -110 -88 -115 -95 -110 -124 3 -19 0 -35 -7 -39 -16 -10 -19 -4 -26 46
l-6 44 144 120 c80 66 166 138 193 159 46 38 95 122 95 164 0 10 4 22 9 28 5
5 17 45 26 89 19 93 31 128 57 172 17 29 21 31 48 22 l29 -10 -32 -30z m1351
-132 c36 -37 46 -56 62 -121 11 -42 19 -80 18 -84 -2 -4 23 -33 53 -65 31 -32
69 -83 84 -113 32 -63 34 -105 10 -283 -8 -62 -17 -178 -21 -259 -5 -124 -10
-157 -31 -209 -14 -35 -29 -63 -34 -63 -8 0 -67 -52 -126 -112 -18 -18 -38
-33 -45 -34 -32 -3 -91 -38 -133 -79 -43 -43 -65 -55 -65 -36 0 6 5 13 10 16
7 4 7 13 0 26 -9 15 -7 19 5 19 8 0 15 7 15 15 0 8 -7 15 -15 15 -8 0 -15 -4
-15 -10 0 -17 -30 1 -30 19 -1 14 -2 14 -11 -1 -5 -10 -16 -15 -25 -11 -13 5
-13 7 -2 14 9 6 9 9 1 9 -6 0 -15 -5 -19 -11 -4 -7 -21 -9 -46 -5 -35 6 -40 4
-34 -10 5 -14 4 -15 -9 -4 -8 7 -21 10 -30 7 -8 -4 -29 8 -51 29 l-37 34 -57
-54 c-40 -38 -68 -57 -95 -62 -36 -6 -39 -4 -94 52 -67 71 -98 141 -113 264
-12 95 -5 259 12 306 10 27 15 55 19 102 0 7 6 10 13 6 7 -4 8 -3 4 4 -8 14
23 78 60 121 34 41 74 61 122 61 30 0 45 7 68 31 41 45 132 102 211 134 37 14
77 37 89 50 21 23 22 23 27 4 3 -11 11 -17 19 -14 8 4 13 25 14 65 2 75 29
162 60 191 29 27 30 20 4 -23 -11 -18 -20 -45 -20 -60 0 -14 -10 -52 -22 -83
-14 -38 -18 -59 -11 -66 14 -14 43 16 43 46 0 12 8 26 18 30 26 10 125 23 140
18 7 -3 12 -23 12 -49 0 -35 4 -44 18 -44 16 -1 16 -1 0 -11 -10 -5 -18 -16
-18 -23 0 -8 -10 -16 -22 -20 -19 -5 -21 -8 -8 -16 23 -15 61 -12 81 6 16 14
16 19 4 38 -8 12 -23 67 -34 123 -29 147 -45 181 -95 204 l-41 19 35 0 c29 0
44 -8 78 -43z m-2136 -131 c7 5 9 -2 4 -20 -5 -19 -3 -26 9 -26 8 0 15 -4 15
-10 0 -5 6 -7 14 -4 15 6 31 -50 19 -69 -3 -5 -2 -7 3 -4 5 3 17 -8 26 -24 10
-16 13 -31 7 -34 -16 -10 -10 -25 10 -25 10 0 21 -7 25 -15 3 -9 0 -15 -9 -15
-11 0 -12 -6 -5 -24 6 -17 5 -26 -2 -28 -13 -5 16 -188 31 -197 5 -3 9 -15 9
-26 -1 -44 13 -65 43 -65 16 0 29 5 29 12 0 6 3 8 6 5 12 -12 -16 -35 -36 -30
-13 3 -20 0 -20 -8 0 -26 17 -42 36 -35 10 4 15 4 11 0 -9 -9 22 -44 40 -44 7
0 13 -4 13 -10 0 -5 0 -12 0 -15 0 -2 12 -16 26 -30 14 -15 24 -29 21 -32 -10
-9 -28 8 -21 19 5 8 1 9 -10 5 -9 -4 -15 -3 -12 2 4 5 -3 7 -14 4 l-21 -6 21
-14 c11 -8 20 -19 20 -26 0 -8 -3 -8 -12 1 -16 16 -28 15 -28 -2 0 -18 40 -28
81 -19 29 6 32 4 24 -13 -4 -10 -7 -27 -7 -36 0 -11 -5 -15 -14 -11 -8 3 -23
-5 -34 -18 -14 -18 -19 -20 -20 -9 0 9 6 22 13 29 10 10 8 14 -6 22 -9 6 -15
14 -12 20 4 5 -1 9 -11 9 -11 0 -15 -6 -12 -18 3 -11 -1 -30 -8 -43 -17 -30
-18 -71 -2 -87 9 -9 8 -15 -4 -24 -22 -17 -54 -128 -39 -137 17 -11 52 -99 68
-170 8 -36 18 -118 23 -181 10 -133 1 -160 -50 -160 -17 0 -30 -5 -30 -10 0
-6 3 -9 8 -9 4 1 12 0 17 -1 6 -1 17 -3 25 -4 9 0 14 -10 13 -21 -1 -11 3 -23
9 -27 12 -7 22 -48 12 -48 -3 0 -18 7 -34 15 -92 47 -110 32 -32 -26 26 -20
65 -61 86 -92 l38 -56 -12 -52 c-8 -34 -25 -67 -49 -93 -20 -23 -53 -62 -74
-88 -20 -25 -54 -56 -75 -69 -20 -12 -58 -36 -83 -53 l-46 -31 -23 -145 c-13
-80 -38 -229 -56 -332 -19 -103 -34 -200 -34 -216 0 -16 -3 -32 -7 -36 -4 -3
-8 -14 -9 -24 -2 -17 -16 -84 -35 -169 -12 -55 -11 -93 1 -93 13 0 13 -47 1
-55 -5 -3 -11 7 -13 22 -2 20 -9 29 -26 31 -27 4 -27 1 29 279 22 106 39 203
38 215 -1 13 -5 3 -10 -22 -10 -47 -40 -174 -59 -250 -7 -25 -17 -81 -23 -124
-10 -65 -16 -80 -33 -86 -20 -8 -20 -5 12 148 18 87 44 204 58 261 14 57 25
106 23 108 -3 2 -13 -29 -58 -182 -16 -54 -48 -229 -43 -236 2 -4 0 -10 -5
-14 -6 -3 -13 -26 -17 -50 -7 -47 -10 -51 -34 -35 -13 8 -13 17 2 77 24 93 51
233 47 238 -2 2 -24 -70 -49 -161 -40 -147 -57 -183 -73 -156 -5 7 55 251 66
269 4 6 18 52 31 104 14 52 32 119 41 149 17 57 19 64 54 190 59 212 59 210
45 210 -7 0 -16 -4 -19 -10 -3 -5 -30 -17 -60 -25 -60 -18 -77 -16 -340 31
-136 24 -157 31 -222 70 -40 24 -77 44 -82 44 -6 0 -8 -22 -6 -52 8 -94 14
-228 20 -413 4 -99 8 -196 10 -215 2 -19 4 -67 4 -107 1 -66 3 -72 24 -75 16
-2 22 -10 22 -28 0 -20 -6 -26 -27 -28 -28 -3 -38 -17 -18 -24 11 -3 16 -375
5 -386 -3 -3 31 -25 75 -49 44 -24 80 -48 80 -54 0 -5 3 -8 8 -7 10 4 258
-146 310 -188 24 -19 49 -34 55 -34 8 1 6 5 -3 13 -8 7 -16 19 -18 27 -1 8 6
4 17 -10 11 -13 18 -27 15 -31 -3 -6 163 -118 289 -195 26 -16 69 -43 95 -60
26 -17 57 -34 70 -38 12 -4 22 -12 22 -17 0 -6 -26 4 -57 22 -101 57 -263 136
-248 121 21 -22 209 -131 217 -126 4 3 8 0 8 -6 0 -5 16 -18 35 -27 19 -9 35
-20 35 -24 0 -4 -11 -20 -24 -36 l-24 -27 25 -32 c28 -38 29 -100 1 -118 -14
-8 -23 -5 -45 17 -33 30 -164 83 -187 74 -10 -4 -16 -18 -16 -36 0 -23 7 -33
38 -48 20 -11 77 -41 127 -67 88 -47 92 -48 160 -44 58 4 91 15 190 59 66 30
185 94 264 142 79 48 154 90 168 93 15 4 43 -4 80 -22 81 -41 133 -117 152
-221 11 -56 -2 -98 -40 -135 -23 -23 -49 -33 -159 -65 -12 -3 -12 -6 -1 -12
25 -16 -28 -38 -139 -60 -150 -29 -230 -53 -350 -101 -58 -23 -125 -46 -150
-52 -262 -59 -475 -122 -526 -156 -7 -4 -22 -28 -35 -53 -33 -64 -81 -127
-101 -132 -28 -8 -28 3 2 35 24 25 70 99 70 112 0 3 -18 7 -40 11 -22 4 -43
12 -47 18 -4 6 0 8 10 4 10 -3 17 -2 17 3 0 6 -8 10 -17 10 -10 0 -36 3 -58 5
-29 4 -35 3 -20 -4 13 -6 -28 -7 -113 -5 -121 5 -138 7 -173 29 -21 14 -45 25
-53 25 -8 0 -37 15 -65 34 -27 19 -54 36 -59 38 -8 2 -73 78 -106 123 -15 20
1 45 28 45 15 0 45 -18 79 -50 30 -27 61 -50 69 -50 8 0 18 -4 24 -9 12 -11
136 -52 142 -47 2 3 -31 23 -74 44 -44 22 -92 54 -109 72 -36 38 -94 70 -140
75 -32 4 -50 13 -150 72 -22 13 -61 33 -87 45 -31 14 -51 31 -59 50 -6 16 -22
37 -35 47 -13 11 -24 26 -24 34 0 9 -4 19 -10 22 -5 3 -10 19 -10 34 0 15 -5
32 -12 39 -6 6 -11 32 -11 58 0 41 -2 45 -14 28 -15 -21 -17 -114 -3 -165 7
-24 31 -56 75 -97 55 -52 62 -62 49 -73 -8 -7 -13 -18 -10 -26 9 -23 -27 2
-68 47 -27 31 -35 47 -31 63 6 20 5 21 -8 5 -8 -10 -17 -18 -20 -18 -3 0 -10
39 -17 87 -14 100 -5 160 35 229 42 71 135 142 135 102 0 -6 3 -8 7 -4 5 4 -1
14 -11 22 -19 13 -19 14 7 14 14 0 30 -8 36 -17 8 -15 23 -18 88 -17 67 1 91
6 158 36 44 20 103 44 132 54 29 9 50 21 48 25 -3 4 3 13 12 20 14 12 15 11 9
-9 -6 -19 -4 -22 18 -22 30 0 35 19 22 77 -7 34 -5 48 11 82 l20 40 -31 6
c-32 7 -184 81 -296 145 -36 21 -94 52 -129 70 l-63 32 23 -34 c26 -37 49 -57
64 -57 6 0 -3 11 -20 24 -65 53 16 16 175 -81 58 -35 116 -73 130 -84 l25 -20
-50 17 c-27 10 -53 23 -57 28 -5 7 -8 7 -8 0 0 -7 -3 -7 -8 0 -4 6 -23 18 -42
29 -19 10 -54 29 -77 43 -24 13 -43 20 -43 16 0 -4 -4 -3 -8 2 -4 6 -27 18
-52 28 -60 22 -34 1 68 -55 45 -25 69 -44 62 -48 -8 -5 -7 -9 5 -13 9 -4 13
-3 10 3 -10 17 1 12 108 -42 56 -29 105 -51 110 -50 4 1 7 -3 7 -8 0 -15 -2
-14 -110 40 -55 28 -100 48 -100 46 0 -2 32 -23 72 -47 43 -25 66 -44 58 -47
-8 -2 -20 -11 -27 -19 -10 -12 -18 -11 -62 12 -91 45 -315 176 -336 195 -11
10 -42 29 -70 42 -27 13 -66 35 -85 49 -19 14 -51 32 -70 39 -19 8 -59 31 -89
52 -30 21 -60 38 -67 38 -6 0 -34 15 -62 34 -27 19 -78 48 -113 64 -81 36
-107 65 -77 83 10 7 9 9 -4 9 -9 0 -18 -6 -21 -12 -6 -20 -19 61 -12 81 3 10
17 24 30 31 23 13 34 9 133 -41 151 -77 715 -379 726 -390 18 -17 36 -9 36 15
0 20 -53 59 -352 256 -194 128 -366 245 -381 259 -72 66 -81 181 -14 181 23 0
58 -20 458 -257 159 -95 292 -173 295 -173 2 0 2 11 -2 24 -3 13 -1 27 5 31 6
3 9 10 6 14 -2 5 2 39 10 77 18 85 18 84 1 84 -16 0 -29 27 -20 41 3 5 14 9
24 9 26 0 30 10 35 82 3 35 12 140 20 233 9 94 20 226 25 295 6 69 15 158 20
198 13 97 13 122 -3 122 -7 0 -48 36 -91 79 l-79 79 29 46 c16 25 44 72 62
104 19 33 65 90 102 127 l69 68 20 -24 c11 -13 20 -18 21 -11 0 6 6 12 13 12
7 0 13 10 13 23 -1 43 16 137 23 137 5 0 19 16 32 35 24 34 60 47 74 25 3 -5
13 -10 22 -10 12 0 14 6 8 27 -3 15 -10 30 -15 33 -5 3 -18 27 -29 53 -11 26
-26 47 -33 47 -10 0 -10 2 -1 8 17 10 5 52 -13 45 -8 -3 -16 5 -20 21 -3 14
-12 30 -19 36 -8 6 -11 18 -9 25 4 10 0 12 -15 8 -22 -6 -30 12 -8 20 8 4 4
12 -12 25 -21 17 -22 21 -8 28 8 5 27 31 41 57 21 40 23 52 14 73 -9 20 -14
22 -27 12 -13 -10 -14 -10 -3 2 19 22 14 48 -12 65 -13 9 -29 29 -36 44 -6 16
-27 41 -46 56 -19 15 -34 31 -34 37 0 5 -9 21 -20 36 -19 26 -19 32 -7 135 11
91 17 110 35 123 12 8 22 22 22 30 0 8 5 14 11 14 5 0 7 -4 4 -10 -3 -5 0 -10
8 -10 16 0 30 27 21 41 -3 5 0 9 5 9 6 0 11 -8 11 -17 1 -16 2 -16 12 1 8 14
8 21 0 24 -6 2 -8 18 -5 40 3 27 2 33 -6 22 -5 -8 -13 -11 -17 -7 -4 3 -2 13
4 20 9 10 8 18 -2 33 -7 10 -12 30 -10 44 1 14 3 33 3 43 1 22 59 79 72 71 5
-3 9 0 9 5 0 6 11 11 24 11 14 0 37 12 53 28 75 71 123 89 263 97 52 3 98 9
102 13 4 4 36 5 70 1 36 -3 68 -2 76 4 8 6 12 6 12 -1 0 -14 48 -21 53 -8 3 7
16 3 34 -11 26 -19 30 -20 29 -5 -1 13 7 17 33 17 22 0 36 6 39 15 4 11 7 11
10 2 2 -6 8 -9 14 -6z m2568 -853 c-6 -28 -18 -57 -26 -63 -17 -15 -19 -40 -3
-40 8 0 10 -12 6 -33 -3 -19 -1 -40 4 -48 6 -10 9 -6 9 14 0 33 19 27 21 -6 1
-12 5 -4 8 18 l7 40 8 -55 c4 -30 12 -73 18 -95 6 -22 12 -62 14 -90 6 -74 42
-215 64 -253 11 -18 20 -41 20 -51 0 -9 6 -23 13 -30 10 -11 9 -13 -3 -9 -8 2
-23 21 -33 41 -10 20 -23 37 -28 37 -5 0 -9 9 -9 19 0 11 -14 55 -32 98 -17
43 -31 84 -31 91 0 6 -4 12 -8 12 -4 0 -10 36 -14 81 -4 44 -9 78 -11 76 -3
-2 -7 -40 -10 -83 -3 -43 -7 -81 -9 -84 -6 -9 23 -135 41 -178 17 -45 15 -78
-3 -40 -20 40 -52 160 -64 238 -13 81 -6 333 8 337 5 2 7 19 5 38 -3 21 0 35
7 35 6 0 11 -8 12 -17 2 -27 17 25 19 67 2 29 4 31 7 10 3 -14 0 -48 -7 -77z
m-320 -407 c0 -8 -4 -18 -10 -21 -18 -11 -10 -24 18 -27 21 -2 28 -9 30 -32 2
-17 0 -26 -7 -22 -5 4 -26 -5 -47 -19 -44 -30 -134 -36 -134 -10 0 8 -6 15
-12 16 -10 0 -10 2 0 6 6 2 10 9 6 14 -3 5 -1 9 5 9 17 0 60 49 67 75 5 21 12
25 45 25 27 0 39 -4 39 -14z m-3814 -258 c-4 -18 -9 -69 -12 -113 -4 -72 -8
-85 -43 -138 -32 -47 -40 -69 -46 -127 -4 -39 -11 -70 -17 -70 -5 0 -7 4 -4 9
3 5 7 53 7 106 1 73 -2 99 -12 106 -25 15 -32 10 -17 -13 8 -13 13 -32 11 -43
-6 -36 -6 -69 2 -95 6 -23 5 -24 -8 -7 -14 16 -14 16 -14 -8 0 -14 3 -28 8
-31 21 -13 6 -34 -33 -46 -30 -9 -65 -36 -128 -98 -48 -47 -97 -101 -111 -121
-84 -124 -106 -158 -122 -189 -70 -129 -98 -186 -132 -265 -21 -49 -39 -92
-41 -94 -2 -2 -4 258 -4 578 l0 583 43 -5 c23 -3 66 -9 95 -13 59 -8 132 9
174 39 27 20 88 31 88 17 0 -5 -6 -10 -12 -13 -10 -3 -8 -10 5 -23 16 -18 17
-17 17 14 0 30 2 32 34 32 l34 0 -3 -102 c-3 -91 -2 -96 5 -43 5 33 10 81 11
106 2 45 2 46 43 57 22 5 64 17 91 25 28 8 61 15 74 16 21 1 23 -2 17 -31z
m4090 -401 c2 -134 19 -319 32 -345 5 -9 6 -26 2 -37 -5 -15 -8 -11 -13 20
-18 110 -28 130 -30 60 0 -17 -1 -17 -4 -2 -3 10 -10 20 -17 23 -8 3 -11 22
-9 55 2 35 -1 48 -9 43 -8 -5 -8 1 -2 22 5 16 9 61 9 101 0 39 3 69 7 67 4 -2
9 0 12 5 9 14 -20 21 -33 8 -8 -8 -11 -4 -11 15 0 20 7 27 33 36 17 5 32 10
32 11 0 1 0 -36 1 -82z m-1227 -135 c-5 -2 -9 -9 -9 -15 0 -8 4 -7 12 1 7 7
20 12 30 12 17 0 18 -13 18 -167 0 -105 4 -163 9 -157 6 5 11 75 12 157 1 81
6 147 10 147 5 0 6 -38 3 -84 -9 -108 -3 -128 42 -149 l36 -18 -7 -134 c-4
-74 -11 -149 -15 -167 l-7 -33 -28 60 c-15 33 -30 84 -33 113 -4 50 -17 69
-24 37 -2 -9 -21 19 -43 62 -22 43 -55 101 -73 130 -19 29 -30 58 -26 64 4 7
3 9 -4 5 -16 -9 -32 25 -28 60 2 16 4 38 5 49 1 17 3 18 11 5 7 -12 10 -8 11
15 l1 30 10 -28 c7 -20 7 -32 -2 -42 -10 -12 -10 -15 2 -15 8 0 19 18 26 43 7
23 16 48 19 56 4 9 1 12 -8 9 -9 -4 -14 2 -14 17 0 19 4 17 37 -19 20 -23 32
-42 27 -44z m-1500 -1338 c2 -10 8 -22 14 -26 6 -3 11 -59 13 -130 2 -68 7
-142 10 -164 4 -21 7 -51 7 -66 0 -16 3 -28 7 -28 8 0 40 -128 39 -160 0 -14
3 -38 7 -55 l7 -30 -22 19 c-11 11 -21 31 -21 46 0 15 -3 30 -7 34 -5 4 -8 11
-9 14 -6 56 -19 106 -31 118 -8 8 -12 22 -9 30 8 22 -4 66 -18 61 -6 -2 -10
-13 -9 -23 5 -47 23 -161 29 -181 4 -13 2 -23 -3 -23 -10 0 -33 73 -53 165
-15 68 -8 373 9 403 14 26 34 24 40 -4z m3671 -139 c30 -8 63 -17 73 -20 77
-19 178 -172 176 -268 0 -45 12 -101 24 -109 6 -4 24 -4 40 -1 23 5 29 2 34
-16 3 -11 10 -21 15 -21 6 0 7 -11 4 -25 -4 -14 -3 -25 1 -25 5 0 30 -20 58
-45 27 -25 56 -45 65 -45 16 0 60 -50 60 -69 0 -5 -12 -11 -27 -13 -18 -2 -29
-10 -31 -22 -3 -15 0 -18 21 -12 17 4 43 -2 79 -20 81 -39 82 -39 102 -73 20
-35 21 -24 -16 -236 -13 -79 -39 -126 -101 -188 -134 -134 -219 -178 -273
-142 -19 12 -37 15 -78 10 -43 -6 -58 -3 -89 15 l-38 23 -23 -22 c-24 -23 -62
-27 -113 -12 -29 9 -36 6 -70 -28 -35 -35 -43 -38 -115 -44 -63 -6 -86 -13
-135 -42 -32 -19 -66 -35 -77 -35 -22 0 -86 38 -86 51 0 5 -27 37 -60 70 -33
33 -82 87 -109 119 -45 54 -49 63 -56 131 -4 40 -11 85 -15 101 -12 40 30 160
78 222 20 27 58 64 85 82 l48 33 -53 -2 c-82 -2 -189 13 -181 26 4 6 0 8 -10
4 -27 -10 -67 12 -131 72 -32 31 -56 51 -53 46 3 -6 2 -17 -3 -25 -7 -11 -21
-3 -63 37 -84 79 -164 126 -304 177 -137 50 -211 93 -237 137 -19 32 -21 80
-4 97 46 46 279 -44 539 -210 173 -110 270 -167 331 -192 32 -14 39 -14 51 -2
8 8 29 16 48 18 21 2 33 8 31 16 -1 7 8 12 22 12 53 0 31 18 -37 30 l-72 13
76 36 c45 21 74 41 72 48 -2 7 7 15 21 19 14 3 24 10 21 14 -8 12 27 22 39 10
18 -18 52 -11 66 15 10 18 16 22 22 13 5 -8 8 1 8 24 0 32 3 37 29 43 16 3 35
13 42 21 6 8 16 14 21 14 5 0 -2 -14 -16 -31 -14 -17 -26 -36 -26 -43 0 -7
-13 -31 -29 -53 l-30 -41 72 -1 c40 -1 108 -6 152 -12 44 -5 103 -13 130 -16
31 -3 57 -13 69 -25 14 -15 21 -17 26 -8 7 12 57 8 97 -7 13 -5 13 -3 4 15 -6
11 -10 40 -10 64 l2 43 7 -35 7 -35 2 33 c0 17 5 32 10 32 24 0 -21 121 -60
163 -10 12 -19 25 -19 30 0 5 -9 -2 -20 -16 -57 -72 -251 -59 -281 20 -12 32
-8 36 25 24 21 -9 26 -8 26 4 0 9 -10 15 -25 15 -44 0 -27 28 30 48 41 14 53
14 115 -3z m-5396 -531 c9 -3 13 -10 10 -15 -3 -5 1 -9 8 -9 8 0 38 -16 67
-34 38 -25 82 -41 150 -56 53 -12 113 -26 133 -32 l37 -11 -39 -46 c-34 -41
-90 -147 -90 -171 0 -5 -4 -12 -10 -15 -5 -3 -7 0 -4 8 9 24 -14 30 -26 7 -8
-15 -15 -18 -28 -11 -19 9 -42 4 -42 -10 0 -6 5 -7 10 -4 6 3 10 -2 10 -12 0
-11 6 -25 13 -32 10 -11 9 -12 -1 -6 -9 4 -15 0 -19 -14 -3 -12 -10 -21 -15
-21 -6 0 -8 7 -4 15 3 10 -1 15 -12 15 -10 0 -24 6 -31 13 -8 6 -11 7 -8 1 4
-7 -12 -11 -46 -12 -29 -1 -62 -4 -74 -6 -13 -3 -25 -1 -28 5 -4 5 -14 9 -23
9 -9 0 -28 12 -41 26 -17 17 -27 22 -35 14 -5 -5 -14 -10 -20 -10 -5 0 -7 3
-4 6 8 8 -53 65 -62 59 -17 -11 -43 97 -37 157 6 64 51 149 91 170 39 22 138
34 170 22z m-232 -696 c-20 -32 -54 -77 -74 -101 l-37 -42 -1 116 0 115 74
-14 74 -15 -36 -59z"/>
<path d="M6597 6187 c-5 -14 4 -59 37 -176 18 -61 15 -71 -15 -53 -18 12 -19
10 -13 -14 5 -20 4 -25 -5 -19 -9 5 -12 -3 -11 -31 4 -94 2 -106 -22 -98 -12
3 -72 7 -132 7 -61 0 -97 3 -81 6 50 11 5 25 -68 22 -18 -1 -27 -6 -24 -13 2
-7 11 -12 21 -10 9 2 16 -1 16 -5 0 -4 -32 -17 -72 -28 -70 -19 -72 -21 -83
-60 -9 -34 -8 -48 8 -90 10 -27 25 -58 34 -67 49 -54 326 -48 394 9 l29 25 0
-59 c0 -33 -9 -94 -20 -137 -12 -43 -27 -127 -35 -188 -21 -160 -46 -234 -107
-320 -20 -29 -19 -82 4 -156 14 -46 -5 -175 -48 -332 -53 -195 -58 -222 -40
-232 40 -22 46 -36 30 -73 -20 -49 -18 -75 6 -75 19 0 20 -5 15 -47 -4 -41 -3
-45 7 -25 6 12 14 22 17 22 14 -1 29 -16 34 -35 4 -16 5 -14 6 7 0 14 -5 29
-11 31 -8 3 -6 6 4 6 14 1 16 9 13 54 -4 42 0 33 18 -43 17 -71 27 -96 40 -98
13 -3 17 4 18 27 2 43 3 48 12 57 4 4 7 1 7 -7 1 -10 4 -10 14 4 12 15 15 15
26 3 6 -9 9 -20 5 -25 -10 -17 -8 -125 3 -129 5 -1 7 -18 5 -37 -3 -34 10 -55
23 -34 4 7 8 42 10 78 1 37 7 78 13 93 6 15 10 40 9 55 -1 15 1 65 6 111 7 79
7 82 -13 82 -12 0 -21 -5 -21 -12 0 -6 -3 -9 -6 -5 -3 3 -3 14 0 25 5 14 13
18 27 15 17 -5 20 -1 19 33 -1 22 1 62 4 89 2 28 7 124 11 215 4 91 8 191 10
223 2 31 0 71 -5 88 -7 24 -6 28 3 21 9 -8 12 6 12 59 0 38 -3 69 -7 69 -4 0
-8 7 -8 15 0 8 4 15 9 15 17 0 20 421 3 495 -7 32 -9 14 -10 -88 -1 -71 -9
-179 -17 -240 -8 -62 -15 -129 -15 -149 0 -20 -4 -40 -10 -43 -5 -3 -10 -13
-10 -21 0 -8 5 -12 10 -9 6 3 10 -1 10 -9 0 -8 -4 -17 -9 -20 -4 -3 -14 -40
-20 -82 -7 -42 -16 -72 -21 -68 -4 5 -1 42 7 83 12 57 13 75 3 81 -7 4 -9 16
-6 28 19 58 26 154 42 514 7 163 6 166 -15 179 -17 11 -21 24 -21 61 0 51 5
58 25 31 25 -34 28 62 6 167 -22 104 -58 236 -70 258 -7 12 -9 12 -14 -1z
m-42 -431 c32 -14 35 -19 34 -53 -2 -34 -2 -35 -6 -8 -5 32 -19 55 -35 55 -5
0 -4 -10 3 -21 8 -17 8 -23 -1 -29 -15 -9 -5 -100 11 -100 6 0 6 -7 -1 -19
-19 -36 -156 -51 -289 -32 -63 9 -96 39 -107 96 -9 50 2 84 32 96 74 27 305
37 359 15z"/>
<path d="M5724 3616 c-3 -8 -7 -21 -8 -29 -1 -8 -7 -22 -14 -30 -11 -13 -18
-45 -38 -164 -6 -40 10 -43 47 -9 40 37 67 87 73 134 3 23 7 46 10 50 5 8 -46
62 -58 62 -4 0 -9 -6 -12 -14z"/>
<path d="M4341 5231 c-28 -26 -45 -71 -21 -56 6 3 13 -2 17 -12 12 -34 25 -44
39 -32 16 13 34 4 34 -17 0 -14 2 -13 16 0 8 9 25 16 37 16 19 -1 18 -3 -8
-15 -16 -7 -25 -14 -18 -14 6 -1 14 -11 16 -23 l4 -23 8 23 c8 25 25 30 25 7
0 -27 20 -16 21 13 1 16 3 20 6 10 2 -10 10 -18 16 -18 8 0 7 -3 -2 -9 -10 -7
-11 -13 -2 -27 10 -18 11 -18 17 3 3 13 10 21 14 18 17 -11 0 59 -25 100 -51
89 -134 112 -194 56z"/>
<path d="M2118 5158 c-16 -5 -28 -14 -28 -19 0 -6 -4 -7 -10 -4 -5 3 -10 -1
-10 -10 0 -9 -4 -14 -9 -11 -15 10 -18 -66 -4 -94 25 -52 47 -63 107 -56 33 5
56 13 60 22 3 8 1 14 -4 14 -6 0 -10 7 -10 15 0 13 4 14 20 5 15 -8 26 -7 45
6 14 9 22 21 19 26 -8 12 14 28 39 28 22 0 95 -72 89 -89 -2 -7 4 -18 14 -25
28 -21 59 25 57 83 -3 71 -42 92 -63 35 -10 -24 -10 -24 -47 -8 -59 25 -64 26
-148 15 -65 -8 -83 -7 -94 4 -12 12 -12 19 -2 41 14 32 13 34 -21 22z"/>
<path d="M628 7548 c-7 -205 0 -1394 8 -1385 7 6 6 1488 0 1494 -2 2 -5 -47
-8 -109z"/>
<path d="M3155 6851 c-22 -9 -50 -78 -33 -83 5 -2 10 -14 11 -27 1 -13 10 -27
22 -31 12 -4 27 -15 34 -24 7 -9 24 -16 38 -16 17 0 27 -8 34 -27 6 -16 34
-46 62 -69 29 -22 57 -50 63 -63 7 -12 17 -28 23 -34 6 -6 11 -19 11 -29 0
-10 6 -18 14 -18 7 0 17 -15 23 -32 8 -26 5 -41 -11 -75 -11 -24 -17 -46 -13
-49 11 -11 48 28 42 44 -6 15 11 42 26 42 15 0 10 -37 -6 -54 -8 -8 -15 -19
-15 -24 0 -5 -18 -16 -41 -25 -22 -9 -38 -20 -35 -26 3 -5 1 -11 -6 -13 -15
-5 -20 -41 -6 -49 28 -17 153 41 181 85 26 39 67 193 67 250 0 84 -25 140 -96
216 -86 91 -174 133 -289 137 -44 2 -89 -1 -100 -6z"/>
<path d="M8 5479 c-3 -19 -3 -529 0 -1134 3 -605 7 -1390 8 -1745 1 -355 5
-1032 8 -1505 3 -473 6 -913 6 -977 0 -98 3 -118 15 -118 12 0 15 15 17 73 0
39 0 79 -1 87 -6 32 -11 1266 -5 1280 3 10 7 11 12 3 5 -8 11 -7 20 3 7 8 8
14 2 14 -5 0 -10 7 -10 15 0 8 -6 15 -13 15 -11 0 -14 36 -15 170 -1 104 2
170 8 170 6 0 10 -11 10 -25 0 -17 5 -25 18 -24 10 0 12 3 5 6 -7 2 -13 17
-13 32 0 15 -7 36 -15 47 -12 15 -15 58 -16 214 -1 107 -1 211 -2 230 -1 132
6 507 10 514 3 4 9 2 14 -5 7 -11 9 -10 9 3 0 9 -5 20 -10 23 -6 3 -10 14 -10
23 0 15 2 15 10 2 11 -17 13 -1 4 25 -6 13 -9 14 -16 3 -5 -8 -8 11 -7 52 1
69 2 455 0 480 0 8 -3 134 -7 279 l-7 264 24 18 c19 15 22 22 13 36 -6 10 -9
36 -7 58 2 28 1 34 -5 20 -16 -35 -22 49 -22 293 0 153 3 231 10 227 6 -3 10
-27 10 -53 0 -35 3 -43 12 -34 9 9 8 25 -4 69 -9 32 -19 81 -22 108 -5 42 -5
46 5 25 6 -14 11 -39 10 -57 0 -18 4 -35 9 -38 13 -8 13 36 0 69 -5 14 -6 26
-2 26 4 0 6 16 4 37 -4 35 -5 36 -17 13 -11 -21 -12 -17 -13 36 -1 58 -1 58
14 32 18 -35 28 -36 22 -3 -3 14 -1 25 3 25 5 0 9 5 9 11 0 5 -5 7 -10 4 -6
-3 -10 4 -10 16 0 22 0 22 -15 3 -17 -22 -15 -44 -21 306 -2 140 1 219 6 210
7 -11 10 -4 10 23 0 21 -4 36 -9 32 -6 -3 -14 2 -19 11 -7 13 -10 9 -14 -17z"/>
</g>
</svg>
