<?xml version="1.0" encoding="UTF-8" standalone="no"?>
<!-- Created with Inkscape (http://www.inkscape.org/) -->

<svg
   xmlns:dc="http://purl.org/dc/elements/1.1/"
   xmlns:cc="http://creativecommons.org/ns#"
   xmlns:rdf="http://www.w3.org/1999/02/22-rdf-syntax-ns#"
   xmlns:svg="http://www.w3.org/2000/svg"
   xmlns="http://www.w3.org/2000/svg"
   xmlns:sodipodi="http://sodipodi.sourceforge.net/DTD/sodipodi-0.dtd"
   xmlns:inkscape="http://www.inkscape.org/namespaces/inkscape"
   sodipodi:docname="fusilli_lunghi3.svg"
   viewBox="0 0 262.20483 372.04732"
   height="105mm"
   width="74mm"
   inkscape:version="0.91 r13725"
   version="1.1"
   id="svg3406">
  <metadata
     id="metadata3412">
    <rdf:RDF>
      <cc:Work
         rdf:about="">
        <dc:format>image/svg+xml</dc:format>
        <dc:type
           rdf:resource="http://purl.org/dc/dcmitype/StillImage" />
        <dc:title></dc:title>
      </cc:Work>
    </rdf:RDF>
  </metadata>
  <defs
     id="defs3410">
    <inkscape:path-effect
       effect="spiro"
       id="path-effect4305"
       is_visible="true" />
    <inkscape:path-effect
       effect="spiro"
       id="path-effect4301"
       is_visible="true" />
  </defs>
  <sodipodi:namedview
     inkscape:current-layer="layer2"
     inkscape:window-maximized="1"
     inkscape:window-y="1051"
     inkscape:window-x="0"
     inkscape:cy="98.467474"
     inkscape:cx="92.896506"
     inkscape:zoom="2.0364675"
     showgrid="false"
     id="namedview3408"
     inkscape:window-height="702"
     inkscape:window-width="1366"
     inkscape:pageshadow="2"
     inkscape:pageopacity="0"
     guidetolerance="10"
     gridtolerance="10"
     objecttolerance="10"
     borderopacity="1"
     bordercolor="#666666"
     pagecolor="#ffffff"
     units="px"
     borderlayer="true"
     showborder="true"
     inkscape:document-units="px"
     height="38mm"
     inkscape:showpageshadow="true"
     fit-margin-top="0" />
  <path
     style="fill:#000000"
     d="m 134.2135,315.82893 c -0.23433,-0.1217 -1.22785,-0.8094 -2.2078,-1.5301 l -1.78175,-1.3102 -1.85489,0.9514 c -1.53662,0.7882 -1.99134,0.8644 -2.6501,0.4438 -0.75561,-0.4824 -1.66677,-2.6871 -2.16002,-5.2262 -0.11217,-0.5774 -0.96833,-2.3165 -1.90256,-3.8643 -1.68395,-2.79 -1.69704,-2.8319 -1.51711,-4.8604 0.32219,-3.6322 0.26186,-4.6091 -0.5218,-8.4495 -0.82568,-4.0464 -0.80203,-5.2228 0.15433,-7.6776 0.57189,-1.468 0.55952,-1.7634 -0.35511,-8.4798 -0.30939,-2.2721 -0.28364,-2.5621 0.41657,-4.6919 0.91486,-2.7829 0.91537,-2.8834 0.0345,-6.7699 -0.75228,-3.3187 -0.72254,-4.1268 0.22842,-6.2068 0.74765,-1.6352 0.73052,-4.2725 -0.0444,-6.8349 -0.7873,-2.6032 -0.76006,-4.2683 0.10181,-6.2232 0.8614,-1.954 0.90737,-3.9404 0.14456,-6.2465 -0.98909,-2.9903 -0.99388,-4.1555 -0.0262,-6.3572 1.0883,-2.4761 1.08786,-3.3863 -0.003,-6.8026 -0.98141,-3.0728 -0.95029,-3.6651 0.32219,-6.1333 1.04918,-2.0349 1.04743,-2.9189 -0.0112,-5.6697 -1.09984,-2.8579 -1.09984,-4.6456 0,-6.7859 1.0794,-2.1006 1.07811,-3.6215 -0.005,-6.0857 -1.11552,-2.5376 -1.0832,-3.8536 0.14697,-5.9841 0.54665,-0.9466 0.99402,-2.0234 0.99414,-2.3927 1.2e-4,-0.3693 -0.44714,-1.7419 -0.99392,-3.0499 -1.31828,-3.1539 -1.2913,-4.4016 0.14202,-6.5671 1.42307,-2.1501 1.43938,-3.2366 0.0852,-5.675 -1.37697,-2.4796 -1.41697,-4.2467 -0.14202,-6.2743 1.10469,-1.7568 1.16783,-3.2841 0.19405,-4.6942 -0.39318,-0.5695 -0.85513,-1.7567 -1.02655,-2.6386 -0.38013,-1.9557 -0.0371,-3.1758 1.16164,-4.1312 1.41889,-1.1309 1.47609,-3.4494 0.11893,-4.82 -0.95936,-0.9689 -1.60364,-3.3605 -1.26985,-4.7137 0.13962,-0.5661 0.71308,-1.5114 1.27438,-2.1005 1.35978,-1.4277 1.33287,-2.6468 -0.11175,-5.0625 -0.77104,-1.2893 -1.13616,-2.3005 -1.13616,-3.1467 0,-1.3609 0.91924,-2.9642 1.84626,-3.2202 1.09546,-0.3026 0.85532,-2.1554 -0.55606,-4.2904 -0.93022,-1.407 -1.2902,-2.2983 -1.2902,-3.1939 0,-1.4472 1.02723,-3.2227 2.10583,-3.6399 1.06732,-0.413 0.90967,-1.4176 -0.59095,-3.7659 -1.02188,-1.5991 -1.32552,-2.3954 -1.32552,-3.4762 0,-1.5115 0.89596,-3.0168 1.79561,-3.0168 0.276,0 0.63474,-0.2468 0.79719,-0.5486 0.39622,-0.7358 -0.0759,-1.9902 -1.43297,-3.8071 -1.30709,-1.7504 -1.44906,-3.6918 -0.38285,-5.2357 0.75331,-1.0909 2.00784,-1.1157 2.02899,-0.041 0.0148,0.7537 0.64129,0.6433 1.26578,-0.2229 0.23462,-0.3255 0.77785,-0.7977 1.20717,-1.0493 0.42933,-0.2516 0.78059,-0.6655 0.78059,-0.9197 0,-0.9267 -0.8527,-0.9318 -1.69222,-0.015 -0.84352,0.9257 -1.43221,0.8865 -1.43221,-0.095 0,-0.2722 -0.63909,-1.4053 -1.4202,-2.518 -1.52194,-2.167902 -1.76553,-3.423202 -0.99379,-5.121502 0.23452,-0.5162 0.80894,-1.0679 1.27648,-1.2262 1.4936,-0.5056 1.52406,-1.5083 0.0969,-3.1878 -1.45106,-1.7079 -1.90719,-3.1061 -1.52229,-4.6666 0.43259,-1.7537 2.56292,-2.8674 2.56292,-1.34 0,0.3613 0.13056,0.6568 0.29013,0.6568 0.31826,0 2.55027,-2.1873 2.55027,-2.4992 0,-0.1069 -0.57519,-0.1392 -1.2782,-0.073 -1.16529,0.1099 -1.40364,-0.054 -2.69837,-1.8585 -1.10428,-1.5393 -1.42019,-2.2723 -1.42019,-3.2954 0,-2.4022 2.39221,-4.5005 2.74697,-2.4095 0.12881,0.7592 0.22491,0.7386 1.53324,-0.3284 0.76769,-0.6259 1.39688,-1.286 1.3982,-1.4667 0.003,-0.4575 -1.47347,-0.3992 -1.9622,0.078 -0.28692,0.2801 -0.79412,-0.1275 -1.76767,-1.42 -1.62092,-2.1522 -2.09207,-3.6007 -1.69485,-5.2111 0.31719,-1.2858 0.43019,-1.4198 1.54518,-1.8311 0.65992,-0.2436 0.832,-0.1363 0.95626,0.5961 0.0833,0.4911 0.22457,0.8931 0.31385,0.8931 0.26972,0 2.0397,-1.9494 2.04179,-2.2488 0.001,-0.1533 -0.59664,-0.4169 -1.32823,-0.586 -1.54263,-0.3566 -3.00965,-1.9132 -3.49092,-3.704 -0.27527,-1.0243 -0.25359,-1.4985 0.11935,-2.61 0.25066,-0.7471 0.54832,-1.3647 0.66147,-1.3723 0.11315,0 0.44239,-0.2903 0.73164,-0.6281 0.50108,-0.585 0.48407,-0.6771 -0.36045,-1.9495 -1.71011,-2.5768 -1.68761,-5.1038 0.0587,-6.5866 0.75139,-0.6379 0.81884,-0.6186 1.30981,0.3746 l 0.51762,1.0472 1.18215,-1.0241 c 0.98192,-0.8505 1.10318,-1.0922 0.71592,-1.4262 -0.25643,-0.2213 -0.97562,-0.2969 -1.59819,-0.1682 -0.99222,0.2052 -1.25904,0.054 -2.16129,-1.2199 -0.85767,-1.2115 -1.02933,-1.749 -1.02933,-3.2233 0,-1.2269 0.19393,-2.0876 0.63263,-2.8073 0.7843,-1.2868 0.78512,-1.2531 -0.0775,-3.2121 -0.83339,-1.893 -0.88627,-3.0806 -0.23143,-5.1973 0.44887,-1.4508 0.44887,-1.6436 0,-3.0944 -0.5828,-1.8838 -0.59732,-2.7332 -0.0792,-4.6328 0.34777,-1.2748 0.34367,-1.6309 -0.0316,-2.7497 -0.30947,-0.9224 -0.3747,-1.8515 -0.23115,-3.292204 0.10999,-1.1038 0.18436,-2.598 0.16525,-3.3203 -0.0191,-0.7225 -0.0737,-6.1402995 -0.12141,-12.0396995 -0.0477,-5.8995 -0.18749,-11.5518005 -0.31073,-12.5606005 -0.46164,-3.7789 0.25988,-5.0502 3.45019,-6.0791 2.81922,-0.9092 3.94235,-0.8229 4.47243,0.3437 0.41155,0.9056 0.5217,0.9336 1.72442,0.4377 1.70182,-0.7015 2.41279,-0.6683 2.41279,0.1128 0,0.6909 -3.1971,4.1733 -3.83139,4.1733 -0.65256,0 -1.28149,0.5079 -1.27768,1.0318 0.002,0.2752 0.80087,1.1133 1.77525,1.8622005 2.16433,1.6636 2.26322,2.474 0.52186,4.2765 l -1.24974,1.2937 1.18313,1.5688 c 0.65072,0.8629 1.18115,1.90759998 1.17873,2.32189998 -0.003,0.4156 -0.51249,1.20040002 -1.13837,1.75130002 -0.62368,0.5489 -1.13495,1.2283 -1.13616,1.5096 -0.001,0.2813 0.4325,0.9257 0.96377,1.4317 1.73532,1.6531 1.65743,2.1767 -0.73566,4.9456 l -0.65635,0.7591995 0.7101,0.8598 c 2.07508,2.5127 2.14193,3.1646 0.4932,4.809 -1.33019,1.326804 -1.34393,2.319704 -0.0484,3.497804 1.36836,1.2444 1.28205,2.8764 -0.23176,4.3819 -0.58583,0.5827 -1.06515,1.3085 -1.06515,1.6129 0,0.3045 0.41541,1.0011 0.92313,1.5476 1.78655,1.9232 1.80326,2.9969 0.071,4.5615 -0.7264,0.6563 -1.27068,1.4674 -1.26082,1.8792 0.01,0.3985 0.55277,1.3228 1.20717,2.054 1.67334,1.8698 1.69423,2.9604 0.0856,4.4696 -0.70698,0.6632 -1.34734,1.4379 -1.42302,1.7216 -0.0757,0.2836 0.43003,1.2326 1.1238,2.1088 1.45776,1.8413 1.57432,2.8476 0.4803,4.1469 -0.42961,0.5103 -1.10065,1.3098 -1.49121,1.7767 l -0.7101,0.849 1.39337,1.8959 c 1.71959,2.3396 1.66867,3.4215 -0.24822,5.2743 -1.63458,1.58 -1.67187,2.5947 -0.13965,3.7995 1.38304,1.0875 1.96742,2.675 1.38376,3.7591 -0.21595,0.4009 -0.87383,1.1974 -1.46196,1.7695 -1.22165,1.1888 -1.39377,2.4921 -0.43023,3.2579 2.32485,1.8477 2.48183,3.7151 0.49707,5.9128 -0.78111,0.8649 -1.41676,1.8989 -1.41256,2.2977 0.004,0.3987 0.50311,1.1959 1.10867,1.7714 0.60557,0.5754 1.24115,1.5203 1.41242,2.0998 0.34171,1.1559 0.0718,1.7081 -2.05548,4.2059 -0.57273,0.6723 -1.04133,1.4087 -1.04133,1.6362 0,0.2276 0.50804,0.908 1.12898,1.5122 1.32759,1.2917 2.07935,2.8819 1.83204,3.8753 -0.097,0.3895 -0.80286,1.402 -1.56866,2.2499 -1.48141,1.6405 -1.80732,3.0325 -0.82274,3.5142 1.01221,0.495202 2.27078,2.438902 2.27078,3.506802 0,0.6972 -0.49614,1.675 -1.56222,3.0789 -0.85922,1.1314 -1.56222,2.3262 -1.56222,2.6547 0,0.3289 0.41541,0.8705 0.92313,1.2041 0.50772,0.3334 1.22635,1.1131 1.59696,1.7328 0.94596,1.5816 0.64168,2.9261 -1.09833,4.8529 -1.64224,1.8185 -1.85726,3.0952 -0.64065,3.8036 1.03336,0.6017 2.34333,2.5611 2.34333,3.5051 0,0.4143 -0.67104,1.6797 -1.49121,2.8123 -0.82016,1.1325 -1.59717,2.343 -1.72667,2.6903 -0.28719,0.7699 0.25802,1.8986 0.91704,1.8986 0.6458,0 2.30084,2.4042 2.30084,3.3422 0,0.4207 -0.703,1.7652 -1.56222,2.9878 -1.91189,2.7208 -1.99924,3.7121 -0.42174,4.7845 1.31188,0.8923 2.15624,2.8947 1.73369,4.1117 -0.14712,0.4236 -0.91791,1.6155 -1.71285,2.6488 -1.82502,2.372 -1.8568,3.275 -0.15852,4.5053 1.34764,0.9765 2.12164,2.2583 2.12164,3.5127 0,0.4089 -0.71363,1.7237 -1.58584,2.9221 -1.91092,2.6249 -1.99088,3.8059 -0.33878,5.0021 1.27213,0.921 2.04369,2.5663 1.78735,3.8114 -0.10141,0.4922 -0.8026,1.6989 -1.55819,2.6809 -1.98606,2.5811 -2.06355,3.6114 -0.37207,4.9474 1.21731,0.9611 2.06753,2.4198 2.06753,3.5468 0,0.5318 -0.65641,1.9166 -1.56222,3.2955 -1.93272,2.9419 -2.01947,4.0007 -0.43021,5.2502 1.40443,1.1044 2.11314,2.6604 1.83652,4.0317 -0.11167,0.5533 -0.84297,1.9186 -1.62512,3.0335 -1.18702,1.692 -1.39271,2.2077 -1.24434,3.1187 0.10768,0.6613 0.51884,1.3095 1.04311,1.6442 1.03144,0.6586 1.98226,2.3968 1.98226,3.6239 0,0.4962 -0.69135,1.9148 -1.58003,3.2413 -1.89467,2.8282 -2.01531,4.2609 -0.45965,5.4583 1.2236,0.9419 1.94798,1.97 2.12566,3.0176 0.1622,0.9557 -1.16888,4.0474 -2.05883,4.7815 -1.38422,1.1419 -1.40355,3.5045 -0.0358,4.3779 2.45816,1.5694 2.64429,3.8453 0.58847,7.1957 -1.76928,2.8836 -1.80627,3.8142 -0.21303,5.3611 2.43773,2.3662 2.49429,3.5706 0.33747,7.1868 -1.84657,3.096 -1.93048,4.1813 -0.40848,5.2845 1.10525,0.8011 1.90621,2.0064 1.99629,3.0046 0.14566,1.613 -0.0964,2.3853 -1.42822,4.5557 -1.7415,2.8382 -1.88058,4.2987 -0.51658,5.4246 1.29815,1.0715 2.22082,2.6825 2.22082,3.8782 0,0.6445 -0.58891,2.0218 -1.56221,3.6534 -0.85922,1.4407 -1.56222,2.9168 -1.56222,3.2799 0,0.8082 0.75206,1.9476 1.9336,2.9296 1.70629,1.4185 1.57168,3.9203 -0.37911,7.0463 -1.08348,1.7363 -1.29025,2.331 -1.21686,3.4996 0.0673,1.0708 0.29222,1.5529 0.94055,2.0146 2.35121,1.6748 2.73674,3.9951 1.25511,7.554 -0.48135,1.156 -0.80373,2.2805 -0.7164,2.4982 0.0873,0.2177 0.68632,0.5264 1.33106,0.6848 1.72311,0.4249 2.77854,1.4236 3.30626,3.1296 0.46544,1.5044 0.47826,1.5126 2.38686,1.5126 1.0554,0 2.00228,-0.2079 2.10417,-0.4622 0.1019,-0.2542 0.39703,-0.3877 0.65585,-0.2967 0.25883,0.091 0.91795,-0.1659 1.46473,-0.5704 0.54678,-0.4046 1.36304,-0.8726 1.81391,-1.04 l 0.81977,-0.3938 -0.69056,0.4997 c -1.2949,0.9372 -1.01455,-4.709 0.0452,-6.2741 l 0.85212,-1.2581 0.86394,1.2462 c -0.005,0.5868 -0.31241,1.9863 -0.54093,2.4519 -0.36509,0.744 -0.5386,0.4295 -0.16562,1.3069 1.57819,1.3284 0.13352,2.0037 0.13352,4.7859 0,3.8624 -0.31026,3.9779 -1.02494,4.3966 -0.77924,0.4568 -1.37237,0.1967 -1.10019,-0.4821 0.0899,-0.2243 0.0215,-0.4074 -0.15188,-0.4074 -0.37312,0 -1.13843,2.6487 -1.13843,3.9399 0,0.4969 -0.22368,1.0073 -0.49707,1.1343 -0.27339,0.1274 -1.27692,0.8102 -2.23008,1.5186 -0.95315,0.7081 -1.78397,1.2719 -1.84626,1.2532 -0.0623,-0.019 -0.30497,-0.1334 -0.5393,-0.2546 z m 2.84039,-3.8443 c 0,-0.914 -0.58925,-1.3356 -0.87952,-0.6291 -0.38507,0.937 -0.30523,1.26 0.31145,1.26 0.31244,0 0.56807,-0.284 0.56807,-0.6309 z m -1.98827,-2.9787 c 0,-0.6924 -1.41254,-0.2953 -1.67901,0.4723 -0.25798,0.743 -0.20571,0.7677 0.70011,0.3308 0.53839,-0.2598 0.9789,-0.6212 0.9789,-0.8031 z m -5.54285,-2.1727 c 0.70524,-0.2907 1.28225,-0.6816 1.28225,-0.8687 0,-0.187 -0.3609,-0.9627 -0.80201,-1.7236 -0.71579,-1.2348 -0.91429,-1.3511 -1.84626,-1.0816 -0.98471,0.2847 -1.04424,0.3965 -1.04424,1.9603 0,2.4683 0.21273,2.6196 2.41026,1.7136 z m -3.43564,-9.1039 c 1.45138,-3.0994 1.66411,-3.9348 1.32109,-5.1883 -0.17442,-0.6376 -0.88721,-1.7502 -1.58398,-2.4725 -0.69677,-0.7223 -1.26713,-1.4728 -1.26747,-1.6676 -3.4e-4,-0.1949 -0.12697,-0.2339 -0.28141,-0.086 -0.16101,0.1535 -0.20862,-0.022 -0.11163,-0.4119 0.093,-0.3737 0.0304,-0.6796 -0.13918,-0.6796 -0.64052,0 0.36226,-2.4387 1.90073,-4.6225 1.34604,-1.9107 1.53452,-2.372 1.37327,-3.3624 -0.15906,-0.9767 -1.05983,-2.1973 -2.91751,-3.9533 -0.22851,-0.216 -0.25009,0.2533 -0.0772,1.6796 0.22928,1.8917 -0.003,4.2288 -0.82868,8.3233 -0.19206,0.953 -0.16489,1.7401 0.0927,2.6842 0.20042,0.7348 0.52773,2.4608 0.72736,3.8359 0.3439,2.3685 0.32672,2.6029 -0.3271,4.4628 l -0.69006,1.9628 0.668,0.8399 c 0.78623,0.9883 1.15835,0.7548 2.14115,-1.3437 z m -1.07779,-27.3622 c 1.94378,-2.1692 2.46366,-3.0982 2.26737,-4.0513 -0.15925,-0.7735 -3.0046,-4.0081 -3.0046,-3.4157 0,0.1026 0.12582,0.6962 0.27959,1.3198 0.31396,1.2727 -0.107,5.1044 -0.72303,6.5808 -0.21702,0.5201 -0.29587,1.4169 -0.19286,2.1933 l 0.17424,1.3135 0.20734,-1.5323 c 0.12503,-0.924 0.51885,-1.8801 0.99195,-2.4081 z m 0.7406,-13.8556 c 1.50859,-2.1972 1.66213,-2.575 1.3786,-3.3916 -0.17549,-0.5052 -0.79909,-1.2963 -1.3858,-1.7576 l -1.06673,-0.8387 0.1108,1.4627 c 0.12825,1.6932 -0.36187,4.2997 -1.12318,5.9731 -0.30513,0.6706 -0.45108,1.4797 -0.34432,1.9086 0.17018,0.6835 0.20769,0.6779 0.45915,-0.07 0.1506,-0.4477 1.03777,-1.9266 1.97148,-3.2867 z m -0.33976,-12.5393 c 2.08055,-2.4128 2.1854,-4.2578 0.29958,-5.271 -0.79047,-0.4247 -0.80367,-0.4036 -0.94334,1.5063 -0.0779,1.0656 -0.48305,2.7322 -0.90031,3.7041 -0.50677,1.1803 -0.69709,2.0659 -0.57325,2.6673 0.18147,0.8814 0.19232,0.879 0.51322,-0.1142 0.18031,-0.5573 0.90215,-1.6796 1.6041,-2.4937 z m 0.32496,-13.1738 c 0.57033,-0.5204 1.11309,-1.2518 1.20615,-1.6257 0.25638,-1.0297 -0.28499,-2.2216 -1.24298,-2.7362 -0.83796,-0.4502 -0.8582,-0.4283 -0.86154,0.939 -0.002,0.7701 -0.31129,2.2299 -0.68757,3.2443 -0.37629,1.0143 -0.76585,2.2949 -0.8657,2.8458 -0.16049,0.8853 -0.089,0.8437 0.61657,-0.3598 0.43896,-0.7487 1.26474,-1.7868 1.83507,-2.3074 z m -3.16727,-6.3751 c 0,-0.1055 -0.12781,-0.3149 -0.28404,-0.4636 -0.15622,-0.1483 -0.28404,-0.063 -0.28404,0.193 0,0.2551 0.12782,0.4636 0.28404,0.4636 0.15623,0 0.28404,-0.086 0.28404,-0.193 z m 2.84732,-5.7229 c 0.91773,-0.7314 1.69732,-1.8493 1.69732,-2.4337 0,-0.7188 -1.11878,-2.1579 -1.67765,-2.1579 -0.37917,0 -0.50189,0.2334 -0.40938,0.7787 0.0759,0.4476 -0.34816,1.8694 -0.99703,3.3429 -1.24562,2.8291 -1.33712,4.6409 -0.12195,2.4147 0.39453,-0.7227 1.07344,-1.5979 1.50869,-1.9447 z m -2.61496,-6.9994 c -0.34967,-1.183 -1.08448,-1.4942 -1.08448,-0.4596 0,0.5869 0.71933,1.5097 1.20108,1.5408 0.11382,0 0.0613,-0.4794 -0.1166,-1.0812 z m 0.84205,-3.2937 c 0.19741,-0.4872 0.99507,-1.4892 1.77256,-2.2266 1.49456,-1.4176 1.71015,-2.2239 0.94355,-3.5298 -0.45808,-0.78 -1.55175,-1.1279 -1.48456,-0.472 0.11035,1.0771 -0.14312,2.0146 -1.02778,3.8009 -0.93306,1.8843 -1.26883,3.3134 -0.77842,3.3134 0.11864,0 0.37723,-0.3988 0.57465,-0.8859 z m -0.76057,-8.8555 c -0.26208,-1.0943 -1.16596,-1.6113 -1.16596,-0.6668 0,0.7538 0.56635,1.652 1.0418,1.652 0.25398,0 0.29057,-0.2903 0.12416,-0.9852 z m 0.63041,-3.1316 c 0.0841,-0.3378 0.86468,-1.2704 1.73463,-2.0725 2.01771,-1.8601 2.08285,-3.1998 0.19892,-4.0916 -0.50245,-0.238 -0.63811,-0.1682 -0.53604,0.2748 0.18323,0.7953 -0.4171,2.5424 -1.32063,3.8435 -0.4054,0.5837 -0.73709,1.4211 -0.73709,1.8607 0,0.9427 0.44082,1.0663 0.66021,0.1851 z m -0.77811,-9.2411 c -0.48145,-1.1326 -1.02542,-1.2756 -1.23128,-0.3236 -0.0586,0.2708 0.16989,0.9185 0.50772,1.4392 0.85584,1.3191 1.40116,0.4784 0.72356,-1.1156 z m 2.9583,-5.1856 c 1.27118,-1.2392 1.46274,-2.7394 0.42726,-3.3462 -0.96886,-0.5678 -0.90715,-0.6019 -1.10466,0.6111 -0.094,0.5772 -0.61913,1.8765 -1.16695,2.8871 -1.30226,2.4025 -1.34614,3.5977 -0.0729,1.9857 0.50772,-0.6426 1.37049,-1.6047 1.91727,-2.1377 z m -2.79638,-6.2381 c -0.12985,-1.1001 -0.58957,-1.9247 -1.07293,-1.9247 -0.53944,0 -0.49107,1.2934 0.0851,2.2747 0.57725,0.983 1.12245,0.79 0.98787,-0.35 z m 1.0065,-3.9399 c 0.43766,-0.6268 1.27506,-1.5172 1.86089,-1.979 1.1722,-0.9238 1.36103,-1.8602 0.51574,-2.5575 -0.81792,-0.6747 -1.44997,-0.5695 -1.25612,0.2093 0.10474,0.4206 -0.26134,1.2629 -1.00305,2.3081 -0.64239,0.9049 -1.16798,1.986 -1.16798,2.4022 0,1.0021 0.11175,0.9612 1.05052,-0.3831 z m -1.05052,-7.3101 c 0,-1.114 -0.48193,-2.0576 -1.05094,-2.0576 -0.51288,0 -0.46278,1.5444 0.0771,2.3767 0.62835,0.9684 0.97385,0.8552 0.97384,-0.3191 z m 3.54505,-6.5867 c 0.48242,-0.5233 0.50783,-0.712 0.17825,-1.3242 -0.42312,-0.7858 -1.88975,-1.0161 -1.58192,-0.2484 0.10264,0.256 -0.33717,1.2108 -0.97738,2.1217 -0.6402,0.911 -1.164,1.9689 -1.164,2.3508 0,0.6562 1.08604,-0.2321 3.54505,-2.8999 z m -3.54505,-4.6164 c 0,-0.4549 -0.25304,-1.2922 -0.56231,-1.8607 -0.4675,-0.8592 -0.60782,-0.9269 -0.8323,-0.4005 -0.39511,0.9266 0.42204,3.0577 1.18158,3.0816 0.11717,0 0.21303,-0.3655 0.21303,-0.8204 z m 3.13532,-6.402 c 0.81123,-0.3969 0.64387,-2.1336 -0.22391,-2.3235 -0.42773,-0.094 -0.63909,0.085 -0.63909,0.541 0,0.3744 -0.51127,1.2024 -1.13616,1.8398 -0.79229,0.8082 -1.13616,1.4717 -1.13616,2.1923 0,1.0172 0.0202,1.0097 1.2725,-0.4637 0.69987,-0.8234 1.53814,-1.6271 1.86282,-1.7859 z m -3.33993,-6.1952 c -0.33712,-1.5597 -1.21558,-1.9517 -1.21558,-0.5426 0,0.5406 0.21427,1.3476 0.47615,1.7937 0.65077,1.1083 1.08912,0.3667 0.73943,-1.2511 z m 2.70855,-4.4999 c 1.32137,-1.0226 1.43911,-1.9155 0.28067,-2.129 -0.51619,-0.095 -0.76258,0.1055 -0.86411,0.7042 -0.0781,0.4604 -0.54219,1.1101 -1.03126,1.4437 -0.64437,0.4398 -0.88924,0.8999 -0.88924,1.6707 l 0,1.0639 0.63909,-0.9024 c 0.3515,-0.4964 1.19068,-1.3293 1.86485,-1.8511 z m -2.66678,-6.3461 c -0.2205,-1.354 -0.91695,-1.9716 -1.25974,-1.1165 -0.2843,0.709 -0.0591,1.7892 0.52388,2.513 0.60426,0.7503 0.97183,0.054 0.73586,-1.3965 z m 1.33171,-3.2496 c 0.37256,-0.4474 1.0928,-1.1422 1.60052,-1.5435 1.06358,-0.841 1.16937,-1.4036 0.34018,-1.8092 -0.41186,-0.2015 -0.79836,0.047 -1.31691,0.8461 -0.40368,0.6221 -0.90826,1.1312 -1.12129,1.1312 -0.21303,0 -0.39711,0.1477 -0.40906,0.3284 -0.0119,0.1806 -0.0645,0.6731 -0.11689,1.0946 -0.12217,0.9836 0.17652,0.9699 1.02345,-0.047 z m -1.28071,-7.1625 c -0.21328,-1.6437 -0.56513,-2.3118 -0.99957,-1.898 -0.74875,0.7133 -0.13881,3.3072 0.77767,3.3072 0.30435,0 0.3594,-0.3497 0.2219,-1.4092 z m 2.45228,-4.629 c 0.58424,-0.4114 1.06356,-0.9942 1.06515,-1.2952 0.006,-1.0568 -1.31704,-0.532 -2.35594,0.9347 -1.16715,1.6479 -1.48245,3.0584 -0.41056,1.8368 0.3515,-0.4007 1.11711,-1.065 1.70135,-1.4763 z m -2.44545,-5.4544 c -0.0942,-0.5417 -0.17301,-1.2313 -0.17515,-1.5323 -0.002,-0.301 -0.25951,-0.5472 -0.57196,-0.5472 -0.65041,0 -0.79881,1.6582 -0.22723,2.5394 0.58987,0.9092 1.16515,0.6378 0.97434,-0.4599 z m -0.022,-11.556102 c -0.2179,-1.3381 -1.11051,-1.2405 -1.23834,0.1348 -0.11197,1.2052 1.16244,2.805702 1.3195,1.6569 0.0529,-0.3867 0.0164,-1.1933 -0.0812,-1.7923 z m 2.0421,-3.2198 c 1.43852,-1.3066 1.55723,-1.9643 0.28622,-1.5856 -0.88052,0.2621 -1.91726,1.6391 -1.91726,2.5462 0,0.5015 0.0607,0.4658 1.63104,-0.9606 z m -1.79138,-5.582 c -0.29224,-2.0557 -0.37733,-2.2984 -0.80575,-2.2984 -0.6689,0 -0.85665,1.6993 -0.29367,2.6582 0.74891,1.2754 1.30598,1.0932 1.09942,-0.3598 z m 0.16034,-9.4387 c 0,-1.2998 -0.66958,-2.7171 -1.09307,-2.3136 -0.50058,0.4768 -0.38896,2.3498 0.16994,2.8516 0.74894,0.6724 0.92313,0.571 0.92313,-0.538 z m 0,-10.1062 c 0,-1.5701 -0.55342,-2.3022 -1.10155,-1.4574 -0.43749,0.6744 -0.40014,1.2029 0.15143,2.1423 0.68922,1.1738 0.95012,0.9858 0.95012,-0.6849 z m 0.13466,-9.1313 c -0.25702,-1.88 -0.57437,-2.3508 -1.11677,-1.6571 -0.56112,0.7178 -0.5532,1.2827 0.032,2.2793 0.78265,1.333 1.31067,1.0301 1.08478,-0.6222 z m 1.58212,-3.5024 c 1.23782,-1.0894 1.36712,-1.4464 0.62654,-1.7298 -1.01965,-0.3903 -1.91338,0.2903 -2.00714,1.5283 -0.10891,1.4379 -0.0361,1.4485 1.3806,0.2015 z m -1.43275,-4.7351 c 0,-1.243 -0.5079,-2.5981 -0.97374,-2.5981 -0.61601,0 -0.7819,1.3462 -0.30433,2.4696 0.54272,1.2767 1.27807,1.3506 1.27807,0.1289 z m 0.28016,-8.618 c -0.009,-1.8253 -0.35358,-2.7824 -0.95337,-2.6497 -0.7763,0.1716 -0.93206,1.4994 -0.3018,2.5729 0.61741,1.0515 1.26031,1.0909 1.25517,0.076 z m 1.15415,-4.2798 c 0.95397,-0.7604 1.10058,-1.5211 0.29316,-1.5211 -0.92059,0 -1.44343,0.4928 -1.44343,1.3602 0,1.0017 0.0813,1.0129 1.15027,0.1609 z m -1.05532,-4.6952 c -0.30454,-2.4777 -1.28762,-3.4364 -1.66158,-1.6204 -0.23893,1.1604 0.55428,3.0432 1.28204,3.0432 0.47203,0 0.52844,-0.2114 0.37954,-1.4228 z m 1.45608,-4.2407 c 0.0894,-0.2228 0.027,-0.5343 -0.13864,-0.6921 -0.3778,-0.3598 -1.12835,0.5647 -1.12835,1.3899 0,0.477 0.12641,0.5142 0.55226,0.1629 0.30375,-0.2504 0.62537,-0.6379 0.71473,-0.8607 z m -1.4901,-3.7952 c -0.12416,-1.9409 -0.27996,-2.3621 -0.87374,-2.3621 -0.50042,0 -0.89143,0.7838 -0.89143,1.787 0,0.676 1.1502,2.2198 1.50897,2.0253 0.18551,-0.1 0.3008,-0.7531 0.2562,-1.4502 z m 1.21725,-4.1134 c 0.0966,-0.2408 0.0477,-0.4379 -0.10849,-0.4379 -0.15622,0 -0.36304,0.1971 -0.45959,0.4379 -0.0965,0.2408 -0.0477,0.4378 0.10849,0.4378 0.15623,0 0.36304,-0.197 0.45959,-0.4378 z m -1.23773,-4.1591 c -0.14875,-1.370304 -0.32861,-1.781804 -0.82665,-1.891504 -1.20538,-0.2654 -1.20628,2.882304 -0.001,3.741504 0.87267,0.6221 1.05248,0.2202 0.82773,-1.85 z m 0.30237,-6.146104 c -0.0458,-0.4725 -0.10969,-1.3302 -0.14202,-1.9063 -0.0792,-1.4110995 -0.85769,-2.1551995 -1.45517,-1.3909995 -0.62576,0.8006 -0.56155,2.4851995 0.13568,3.5598995 0.71427,1.1009 1.57862,0.9456 1.46151,-0.2626 z m 0.084,-8.0826995 c 0.0134,-2.2345 -0.2628,-3.06460002 -1.01966,-3.06460002 -0.59786,0 -1.11137,1.23500002 -1.11137,2.67310002 0,1.3133 0.82671,2.6494 1.54101,2.4904 0.48143,-0.107 0.5802,-0.4586 0.59002,-2.0989 z m 0.12514,-4.79120002 c 0.33478,-0.32649998 0.34756,-0.61059998 0.0697,-1.55059998 -0.22238,-0.7524 -0.24824,-1.4158 -0.0747,-1.9157 0.1549,-0.4461 0.16143,-1.0243 0.0157,-1.3878 -0.16203,-0.4041 -0.0972,-0.8832 0.18447,-1.3629 0.33395,-0.5687 0.36346,-0.9439 0.12765,-1.623 -0.16867,-0.4858 -0.30667,-1.7616005 -0.30667,-2.8352005 0,-2.057 -0.26721,-2.4837 -1.55506,-2.4837 -1.21088,0 -1.33698,2.3238 -0.27735,5.1107005 0.67034,1.7631 0.69138,1.9759 0.28404,2.8722 -0.61903,1.3623 -0.55661,3.6581 0.12817,4.7135 0.63513,0.97899998 0.81399,1.03789998 1.40405,0.46249998 z"
     id="path3448"
     inkscape:connector-curvature="0"
     sodipodi:nodetypes="cscssssssssssssssssssssssssssssssscsscssssssssssscscssssssssssssssscssssscssscsssscsssssssssssssssssssscsscscscsscsssssssssscssscsssssssssssssssssssssssssssssscsssssssssssssssssssssssssssssssssssscsssscsscssccscssssscscccsssssscssssssscsssccssscssssscsccsssssscsscsscsssccccssssccccsscssscsssssssssssssscscssssscsssssssssssssssssssssssssssssssssssssscsssssscsccsssscssssscsssccssssscsscsssccssssssssssssssssssssssssssssssssssssssssssssssssssssssssssssssssssssssssssssssssssssssssssscsssssssccsc" />
  <path
     style="fill:none;fill-rule:evenodd;stroke:#000000;stroke-width:1px;stroke-linecap:butt;stroke-linejoin:miter;stroke-opacity:1"
     d="m 53.318952,351.79633 80.755368,-49.3496 75.18605,46.5562"
     id="path4319"
     inkscape:connector-curvature="0"
     sodipodi:nodetypes="ccc" />
  <g
     inkscape:groupmode="layer"
     id="layer1"
     inkscape:label="Layer 1">
    <rect
       style="fill:#000000;stroke:#ffffff"
       id="rect4656"
       width="194.45436"
       height="31.917978"
       x="36.82848"
       y="339.63815" />
  </g>
  <g
     inkscape:groupmode="layer"
     id="layer2"
     inkscape:label="Layer 2">
    <text
       xml:space="preserve"
       style="font-style:normal;font-variant:normal;font-weight:bold;font-stretch:normal;font-size:27.16743851px;line-height:125%;font-family:sans-serif;-inkscape-font-specification:'sans-serif Bold';letter-spacing:0px;word-spacing:0px;fill:#ffffff;fill-opacity:1;stroke:none;stroke-width:1px;stroke-linecap:butt;stroke-linejoin:miter;stroke-opacity:1"
       x="49.5429"
       y="330.94388"
       id="text4307"
       sodipodi:linespacing="125%"
       transform="scale(0.90275896,1.1077154)"><tspan
         sodipodi:role="line"
         id="tspan4309"
         x="49.5429"
         y="330.94388">Primi  Piatti </tspan></text>
  </g>
</svg>
