<?xml version="1.0" encoding="utf-8"?>
<!-- Generator: Adobe Illustrator 18.1.1, SVG Export Plug-In . SVG Version: 6.00 Build 0)  -->
<svg version="1.1" id="Livello_1" xmlns="http://www.w3.org/2000/svg" xmlns:xlink="http://www.w3.org/1999/xlink" x="0px" y="0px"
	 viewBox="0 0 555.7 1199.8" enable-background="new 0 0 555.7 1199.8" xml:space="preserve">
<rect x="0.3" y="1146.7" fill="#1D1D1B" width="555.1" height="53"/>
<polyline fill="none" stroke="#1D1D1B" stroke-width="3" stroke-miterlimit="10" points="0.3,1147.1 277.8,1094.9 555.4,1147.1 "/>
<g>
	<path fill="#1D1D1B" d="M297.3,1031.2c-0.2,0-0.4,0-0.6,0c-0.9,0-2.3,0-3.9,0V0h-4.3v1031.2h-21.3V0h-4.3v1031.2
		c-1.8,0-3.2,0-3.9,0c-0.2,0-0.4,0-0.6,0c-4.5,0-8.1,3.6-8.1,8.1c0,0.1,0,0.1,0,0.2c0,0,0,0.1,0,0.1c0,0,0,0,0,0.1
		c0.1,2.3,1.2,4.3,2.8,5.8c3.5,3.6,17.4,17.7,19,18.9l0,0c0.8,0.9,1.9,1.5,3,1.9c0,2.8,0,6.7,0,6.7c0,1.9-1.1,3.5-2.8,4.3
		c-0.2,0.1-0.4,0.1-0.6,0.2c-0.2,0.1-0.4,0.1-0.5,0.2c-5.9,2.2-10,8-9.5,14.7c0.5,7.1,6.4,12.9,13.5,13.4c6.9,0.4,12.9-4,14.8-10.1
		c0.4-1.4,0.7-2.8,0.7-4.4c0-0.8-0.1-1.5-0.2-2.2c-0.1-0.3-0.2-0.7-0.2-1.1c0-0.1,0-0.1,0-0.2c0-0.8,0.3-1.6,0.7-2.3
		c0.1-0.1,0.1-0.1,0.2-0.2c0.1-0.1,0.1-0.3,0.1-0.4c0-0.5-0.4-0.8-0.9-0.9l0,0c-0.2,0-0.3,0.1-0.4,0.2c-0.3,0.1-0.6,0.3-0.9,0.5
		c-1.7,1-2.9,2.9-3,5c0,0,0,0,0,0c-0.2,3.8-3.4,6.9-7.3,6.7c-3.8-0.1-6.9-3.4-6.9-7.2c0-3.3,2.3-6.1,5.5-6.9c0.1,0,0.3-0.1,0.4-0.1
		c2-0.5,3.5-2.3,3.6-4.5c0,0,0-0.1,0-0.1c0-0.1,0-0.2,0-0.3l0,0v-11.2c1.2-0.5,2.2-1.3,3-2.3c0,0,0.1,0,0.1-0.1
		c1.8-2.3,17.2-17.1,18.3-18.1c1.6-1.4,2.7-3.4,2.9-5.7c0,0,0,0,0,0c0-0.1,0-0.1,0-0.2c0,0,0,0,0,0c0-0.1,0-0.1,0-0.2
		C305.4,1034.9,301.8,1031.2,297.3,1031.2z M259.4,1043c-2.9,0.8-5.4-1.8-4.7-4.7c0.3-1.3,1.4-2.3,2.6-2.6c2.9-0.8,5.4,1.8,4.7,4.7
		C261.7,1041.7,260.7,1042.7,259.4,1043z M298.3,1043c-2.9,0.8-5.4-1.8-4.7-4.7c0.3-1.3,1.4-2.3,2.6-2.6c2.9-0.8,5.4,1.8,4.7,4.7
		C300.6,1041.7,299.6,1042.7,298.3,1043z"/>
</g>
<g>
	<path fill="#FFFFFF" d="M18.2,1186.8v-23.6H23v19.3h4.4v4.3H18.2z"/>
	<path fill="#FFFFFF" d="M34.2,1170.8h-2.9l-0.8-9h4.6L34.2,1170.8z"/>
	<path fill="#FFFFFF" d="M45.9,1186.8v-1.4c-0.4,1-1.4,1.7-2.7,1.7c-2.8,0-4.3-1.7-4.3-5.2v-8.8c0-3.5,1.6-5.2,4.3-5.2
		c1.3,0,2.2,0.7,2.7,1.7v-1.4h4.6v18.6H45.9z M45.8,1173.4c0-0.8-0.5-1.3-1.1-1.3c-0.6,0-1.1,0.5-1.1,1.3v8.1c0,0.8,0.5,1.3,1.1,1.3
		c0.6,0,1.1-0.5,1.1-1.3V1173.4z"/>
	<path fill="#FFFFFF" d="M61,1176.2v-2.7c0-0.8-0.4-1.3-0.9-1.3c-0.6,0-0.9,0.5-0.9,1.3v13.4h-4.7v-18.6H59v1.2
		c0.5-0.8,1.4-1.4,2.5-1.4c2.8,0,4.2,1.7,4.2,5.2v3.1H61z"/>
	<path fill="#FFFFFF" d="M74.4,1187.1c-3.5,0-5.7-2-5.7-5.4v-8.4c0-3.4,2.2-5.4,5.7-5.4s5.7,2,5.7,5.4v5.5h-6.7v2.8
		c0,0.8,0.4,1.3,1,1.3s1-0.5,1-1.3v-1.1h4.7v1.3C80.2,1185.1,78,1187.1,74.4,1187.1z M75.4,1173.4c0-0.8-0.4-1.3-1-1.3s-1,0.5-1,1.3
		v2.2h2V1173.4z"/>
	<path fill="#FFFFFF" d="M90.7,1186.8v-1.4c-0.4,1-1.4,1.7-2.7,1.7c-2.8,0-4.3-1.7-4.3-5.2v-8.8c0-3.5,1.6-5.2,4.3-5.2
		c1.3,0,2.2,0.7,2.7,1.7v-1.4h4.6v18.6H90.7z M90.6,1173.4c0-0.8-0.5-1.3-1.1-1.3c-0.6,0-1.1,0.5-1.1,1.3v8.1c0,0.8,0.5,1.3,1.1,1.3
		c0.6,0,1.1-0.5,1.1-1.3V1173.4z"/>
	<path fill="#FFFFFF" d="M114.1,1187.1c-1.1,0-2.1-0.5-2.6-1.5v8h-4.7v-25.5h4.6v1.4c0.4-1,1.4-1.7,2.7-1.7c2.8,0,4.3,1.7,4.3,5.2
		v8.8C118.4,1185.3,116.9,1187.1,114.1,1187.1z M113.7,1173.4c0-0.8-0.5-1.3-1.1-1.3s-1.1,0.5-1.1,1.3v8.1c0,0.8,0.5,1.3,1.1,1.3
		s1.1-0.5,1.1-1.3V1173.4z"/>
	<path fill="#FFFFFF" d="M129,1186.8v-1.4c-0.4,1-1.4,1.7-2.7,1.7c-2.8,0-4.3-1.7-4.3-5.2v-8.8c0-3.5,1.6-5.2,4.3-5.2
		c1.3,0,2.2,0.7,2.7,1.7v-1.4h4.6v18.6H129z M128.9,1173.4c0-0.8-0.5-1.3-1.1-1.3c-0.6,0-1.1,0.5-1.1,1.3v8.1c0,0.8,0.5,1.3,1.1,1.3
		c0.6,0,1.1-0.5,1.1-1.3V1173.4z"/>
	<path fill="#FFFFFF" d="M137.5,1186.8v-25.1h4.7v25.1H137.5z"/>
	<path fill="#FFFFFF" d="M151.5,1187.1c-3.5,0-5.6-2-5.6-5.4v-8.4c0-3.4,2.1-5.4,5.6-5.4s5.6,2,5.6,5.4v1.3h-4.7v-1.1
		c0-0.8-0.3-1.3-0.9-1.3s-0.9,0.5-0.9,1.3v8.1c0,0.8,0.3,1.3,0.9,1.3s0.9-0.5,0.9-1.3v-1.1h4.7v1.3
		C157.1,1185.1,155.1,1187.1,151.5,1187.1z"/>
	<path fill="#FFFFFF" d="M166.2,1187.1c-3.5,0-5.8-2-5.8-5.4v-8.4c0-3.4,2.2-5.4,5.8-5.4c3.5,0,5.8,2,5.8,5.4v8.4
		C172,1185.1,169.7,1187.1,166.2,1187.1z M167.2,1173.4c0-0.8-0.5-1.3-1.1-1.3c-0.6,0-1,0.5-1,1.3v8.1c0,0.8,0.5,1.3,1,1.3
		c0.6,0,1.1-0.5,1.1-1.3V1173.4z"/>
	<path fill="#FFFFFF" d="M188.8,1187.1c-3.5,0-5.7-2-5.7-5.4v-8.4c0-3.4,2.2-5.4,5.7-5.4s5.7,2,5.7,5.4v5.5h-6.7v2.8
		c0,0.8,0.4,1.3,1,1.3s1-0.5,1-1.3v-1.1h4.7v1.3C194.5,1185.1,192.3,1187.1,188.8,1187.1z M189.7,1173.4c0-0.8-0.4-1.3-1-1.3
		s-1,0.5-1,1.3v2.2h2V1173.4z"/>
	<path fill="#FFFFFF" d="M205.7,1166.7v-4.2h4.7v4.2H205.7z M205.7,1186.8v-18.6h4.7v18.6H205.7z"/>
	<path fill="#FFFFFF" d="M221.1,1186.8v-13.4c0-0.8-0.4-1.3-1-1.3c-0.6,0-1,0.5-1,1.3v13.4h-4.7v-18.6h4.6v1.2
		c0.5-0.8,1.5-1.4,2.6-1.4c2.8,0,4.3,1.7,4.3,5.2v13.7H221.1z"/>
	<path fill="#FFFFFF" d="M235.2,1187.1c-3.5,0-5.6-2-5.6-5.4v-18h4.7v4.5h6.3v4.3h-6.3v9.1c0,0.8,0.3,1.3,0.9,1.3
		c0.6,0,0.9-0.5,0.9-1.3v-3.2h4.7v3.4C240.8,1185.1,238.8,1187.1,235.2,1187.1z"/>
	<path fill="#FFFFFF" d="M250.6,1176.2v-2.7c0-0.8-0.4-1.3-0.9-1.3c-0.6,0-0.9,0.5-0.9,1.3v13.4H244v-18.6h4.6v1.2
		c0.5-0.8,1.4-1.4,2.5-1.4c2.8,0,4.2,1.7,4.2,5.2v3.1H250.6z"/>
	<path fill="#FFFFFF" d="M265.4,1186.8v-1.4c-0.4,1-1.4,1.7-2.7,1.7c-2.8,0-4.3-1.7-4.3-5.2v-8.8c0-3.5,1.6-5.2,4.3-5.2
		c1.3,0,2.2,0.7,2.7,1.7v-1.4h4.6v18.6H265.4z M265.3,1173.4c0-0.8-0.5-1.3-1.1-1.3c-0.6,0-1.1,0.5-1.1,1.3v8.1
		c0,0.8,0.5,1.3,1.1,1.3c0.6,0,1.1-0.5,1.1-1.3V1173.4z"/>
	<path fill="#FFFFFF" d="M279.5,1187.1c-3.5,0-5.6-2-5.6-5.4v-18h4.7v4.5h6.3v4.3h-6.3v9.1c0,0.8,0.3,1.3,0.9,1.3
		c0.6,0,0.9-0.5,0.9-1.3v-3.2h4.7v3.4C285.1,1185.1,283.1,1187.1,279.5,1187.1z"/>
	<path fill="#FFFFFF" d="M293.9,1187.1c-3.5,0-5.6-2-5.6-5.4v-18h4.7v4.5h6.3v4.3h-6.3v9.1c0,0.8,0.3,1.3,0.9,1.3
		c0.6,0,0.9-0.5,0.9-1.3v-3.2h4.7v3.4C299.5,1185.1,297.5,1187.1,293.9,1187.1z"/>
	<path fill="#FFFFFF" d="M308.3,1187.1c-3.5,0-5.7-2-5.7-5.4v-8.4c0-3.4,2.2-5.4,5.7-5.4s5.7,2,5.7,5.4v5.5h-6.7v2.8
		c0,0.8,0.4,1.3,1,1.3s1-0.5,1-1.3v-1.1h4.7v1.3C314,1185.1,311.8,1187.1,308.3,1187.1z M309.2,1173.4c0-0.8-0.4-1.3-1-1.3
		s-1,0.5-1,1.3v2.2h2V1173.4z"/>
	<path fill="#FFFFFF" d="M324.4,1186.8v-13.4c0-0.8-0.4-1.3-1-1.3c-0.6,0-1,0.5-1,1.3v13.4h-4.7v-18.6h4.6v1.2
		c0.5-0.8,1.5-1.4,2.6-1.4c2.8,0,4.3,1.7,4.3,5.2v13.7H324.4z"/>
	<path fill="#FFFFFF" d="M332.9,1166.7v-4.2h4.7v4.2H332.9z M332.9,1186.8v-18.6h4.7v18.6H332.9z"/>
	<path fill="#FFFFFF" d="M355,1186.8v-13.4c0-0.8-0.4-1.3-1-1.3s-1,0.5-1,1.3v13.4h-4.7v-13.4c0-0.8-0.4-1.3-1-1.3
		c-0.6,0-1,0.5-1,1.3v13.4h-4.7v-18.6h4.6v1.2c0.5-0.8,1.5-1.4,2.6-1.4c1.7,0,2.8,0.5,3.4,1.8c0.7-1.2,2-1.8,3.4-1.8
		c2.8,0,4.3,1.7,4.3,5.2v13.7H355z"/>
	<path fill="#FFFFFF" d="M369.1,1187.1c-3.5,0-5.7-2-5.7-5.4v-8.4c0-3.4,2.2-5.4,5.7-5.4s5.7,2,5.7,5.4v5.5h-6.7v2.8
		c0,0.8,0.4,1.3,1,1.3s1-0.5,1-1.3v-1.1h4.7v1.3C374.8,1185.1,372.6,1187.1,369.1,1187.1z M370.1,1173.4c0-0.8-0.4-1.3-1-1.3
		s-1,0.5-1,1.3v2.2h2V1173.4z"/>
	<path fill="#FFFFFF" d="M385.2,1186.8v-13.4c0-0.8-0.4-1.3-1-1.3c-0.6,0-1,0.5-1,1.3v13.4h-4.7v-18.6h4.6v1.2
		c0.5-0.8,1.5-1.4,2.6-1.4c2.8,0,4.3,1.7,4.3,5.2v13.7H385.2z"/>
	<path fill="#FFFFFF" d="M399.4,1187.1c-3.5,0-5.6-2-5.6-5.4v-18h4.7v4.5h6.3v4.3h-6.3v9.1c0,0.8,0.3,1.3,0.9,1.3
		c0.6,0,0.9-0.5,0.9-1.3v-3.2h4.7v3.4C405,1185.1,402.9,1187.1,399.4,1187.1z"/>
	<path fill="#FFFFFF" d="M413.8,1187.1c-3.5,0-5.8-2-5.8-5.4v-8.4c0-3.4,2.2-5.4,5.8-5.4c3.5,0,5.8,2,5.8,5.4v8.4
		C419.6,1185.1,417.3,1187.1,413.8,1187.1z M414.8,1173.4c0-0.8-0.5-1.3-1.1-1.3c-0.6,0-1,0.5-1,1.3v8.1c0,0.8,0.5,1.3,1,1.3
		c0.6,0,1.1-0.5,1.1-1.3V1173.4z"/>
	<path fill="#FFFFFF" d="M444.4,1186.8v-13.4c0-0.8-0.4-1.3-1-1.3s-1,0.5-1,1.3v13.4h-4.7v-13.4c0-0.8-0.4-1.3-1-1.3
		c-0.6,0-1,0.5-1,1.3v13.4h-4.7v-18.6h4.6v1.2c0.5-0.8,1.5-1.4,2.6-1.4c1.7,0,2.8,0.5,3.4,1.8c0.7-1.2,2-1.8,3.4-1.8
		c2.8,0,4.3,1.7,4.3,5.2v13.7H444.4z"/>
	<path fill="#FFFFFF" d="M459.6,1186.8v-1.2c-0.5,0.8-1.5,1.4-2.6,1.4c-2.8,0-4.3-1.7-4.3-5.2v-13.7h4.7v13.4c0,0.8,0.4,1.3,1,1.3
		c0.6,0,1-0.5,1-1.3v-13.4h4.7v18.6H459.6z"/>
	<path fill="#FFFFFF" d="M473.2,1187.2c-3.6,0-5.6-2.3-5.6-5.5v-1.2h4.6v0.9c0,1.3,0.4,1.7,1.1,1.7c0.7,0,1.1-0.4,1.1-1.6
		c0-1.3-0.7-1.8-2.8-2.7c-2.5-1.2-3.8-2.6-3.8-5.5c0-3.2,1.8-5.5,5.5-5.5c3.7,0,5.4,2.4,5.4,5.6v0.9h-4.5v-0.9
		c0-0.9-0.1-1.8-0.9-1.8c-0.7,0-1,0.7-1,1.6c0,1.3,0.6,1.7,2.6,2.7c2.2,1.1,3.9,2.2,3.9,5.5C478.9,1184.6,476.9,1187.2,473.2,1187.2
		z"/>
	<path fill="#FFFFFF" d="M482.1,1166.7v-4.2h4.7v4.2H482.1z M482.1,1186.8v-18.6h4.7v18.6H482.1z"/>
	<path fill="#FFFFFF" d="M496.2,1187.1c-3.5,0-5.6-2-5.6-5.4v-8.4c0-3.4,2.1-5.4,5.6-5.4s5.6,2,5.6,5.4v1.3H497v-1.1
		c0-0.8-0.3-1.3-0.9-1.3s-0.9,0.5-0.9,1.3v8.1c0,0.8,0.3,1.3,0.9,1.3s0.9-0.5,0.9-1.3v-1.1h4.7v1.3
		C501.8,1185.1,499.7,1187.1,496.2,1187.1z"/>
	<path fill="#FFFFFF" d="M512.1,1186.8v-1.4c-0.4,1-1.4,1.7-2.7,1.7c-2.8,0-4.3-1.7-4.3-5.2v-8.8c0-3.5,1.6-5.2,4.3-5.2
		c1.3,0,2.2,0.7,2.7,1.7v-1.4h4.6v18.6H512.1z M512,1173.4c0-0.8-0.5-1.3-1.1-1.3c-0.6,0-1.1,0.5-1.1,1.3v8.1c0,0.8,0.5,1.3,1.1,1.3
		c0.6,0,1.1-0.5,1.1-1.3V1173.4z"/>
	<path fill="#FFFFFF" d="M520.6,1186.8v-25.1h4.7v25.1H520.6z"/>
	<path fill="#FFFFFF" d="M534.7,1187.1c-3.5,0-5.7-2-5.7-5.4v-8.4c0-3.4,2.2-5.4,5.7-5.4s5.7,2,5.7,5.4v5.5h-6.7v2.8
		c0,0.8,0.4,1.3,1,1.3s1-0.5,1-1.3v-1.1h4.7v1.3C540.4,1185.1,538.2,1187.1,534.7,1187.1z M535.7,1173.4c0-0.8-0.4-1.3-1-1.3
		s-1,0.5-1,1.3v2.2h2V1173.4z"/>
</g>
</svg>
