<?xml version="1.0" standalone="no"?>
<!DOCTYPE svg PUBLIC "-//W3C//DTD SVG 20010904//EN"
 "http://www.w3.org/TR/2001/REC-SVG-20010904/DTD/svg10.dtd">
<svg version="1.0" xmlns="http://www.w3.org/2000/svg"
 width="217.000000pt" height="232.000000pt" viewBox="0 0 217.000000 232.000000"
 preserveAspectRatio="xMidYMid meet">
<metadata>
Created by potrace 1.12, written by Peter Selinger 2001-2015
</metadata>
<g transform="translate(0.000000,232.000000) scale(0.100000,-0.100000)"
fill="#000000" stroke="none">
<path d="M87 2299 c-25 -24 -75 -30 -80 -10 -3 9 -5 -12 -6 -47 -1 -48 2 -61
11 -56 10 6 10 5 1 -7 -16 -20 -16 -311 0 -321 8 -4 7 -11 -1 -21 -8 -10 -12
-54 -11 -136 l2 -121 29 0 c17 0 27 -4 23 -10 -3 -5 -1 -18 4 -27 8 -15 10
-11 11 19 0 30 3 35 18 31 28 -7 26 -48 -4 -68 -14 -9 -23 -19 -20 -22 3 -3
12 0 21 7 19 16 45 6 45 -19 0 -10 7 -21 15 -25 21 -8 19 -45 -3 -54 -9 -4
-17 -16 -17 -27 0 -29 -41 -33 -50 -5 -5 17 -10 19 -21 9 -30 -25 -61 20 -33
48 8 8 7 13 -2 18 -7 5 -10 4 -5 -3 3 -6 2 -13 -3 -16 -4 -3 -9 -32 -9 -63 0
-55 0 -57 14 -32 15 29 40 44 49 29 8 -13 -7 -40 -39 -69 l-26 -25 0 -233 1
-233 28 0 c61 0 85 -89 35 -129 -15 -12 -35 -21 -45 -21 -24 0 -24 -12 1 -35
11 -10 20 -30 20 -45 0 -28 -21 -55 -33 -43 -4 3 -7 -37 -7 -89 0 -76 3 -97
15 -102 19 -7 19 -55 0 -62 -19 -8 -19 -25 0 -71 12 -28 18 -34 27 -25 14 14
-6 67 -22 57 -6 -3 -10 1 -10 9 0 9 5 16 10 16 12 0 70 -88 70 -106 0 -10 23
-13 90 -11 79 2 90 4 90 20 0 10 4 15 10 12 6 -3 7 1 4 10 -5 13 -1 15 26 10
21 -4 29 -2 25 5 -4 6 -13 9 -21 6 -17 -7 -18 6 -2 22 14 14 67 16 88 2 8 -5
11 -10 6 -10 -5 0 -3 -7 4 -15 7 -8 17 -12 22 -9 6 4 8 -2 6 -12 -2 -11 -11
-18 -20 -18 -10 1 -14 -4 -11 -13 5 -11 9 -11 24 3 17 15 19 15 25 0 5 -13 20
-16 88 -14 l81 2 -75 3 c-67 4 -89 12 -90 35 0 4 26 15 58 25 31 9 60 22 65
28 5 6 11 4 18 -7 5 -10 18 -18 28 -18 10 0 24 -6 30 -14 10 -11 8 -17 -9 -29
-18 -13 -19 -15 -5 -21 25 -9 43 -7 26 3 -9 6 -10 11 -2 15 18 12 12 44 -10
51 -26 9 -21 39 8 43 25 4 73 -38 73 -62 0 -12 -5 -14 -24 -6 -23 8 -23 8 -13
-21 11 -27 27 -40 27 -21 0 13 48 32 64 26 8 -3 17 -12 20 -20 8 -20 24 -17
36 7 10 17 9 20 -6 17 -29 -5 -27 20 4 51 25 25 34 29 58 22 42 -11 46 -60 8
-90 l-27 -21 27 0 c14 0 26 4 26 8 0 4 13 13 30 19 25 9 33 8 51 -8 16 -14 37
-19 81 -19 33 0 57 4 54 8 -3 5 10 23 28 41 25 24 36 29 41 20 5 -8 -4 -23
-24 -41 -38 -34 -15 -39 25 -5 22 19 26 29 20 50 -8 35 -39 35 -71 1 l-25 -27
0 27 c0 38 16 63 50 81 27 14 33 14 59 1 32 -17 41 -34 41 -76 0 -36 -10 -61
-21 -54 -5 3 -6 -2 -3 -10 8 -21 17 -20 32 5 l13 21 18 -21 c25 -29 35 -27 16
3 -14 22 -14 25 0 40 38 37 86 7 70 -44 -3 -11 -2 -20 3 -20 6 0 13 12 16 26
5 20 12 25 34 22 16 -2 31 -12 37 -25 10 -22 13 -23 166 -22 l157 0 -3 25 c-1
14 -16 37 -34 53 -17 15 -31 32 -31 38 0 28 81 66 94 44 4 -6 1 -9 -6 -6 -23
9 -16 -64 7 -81 25 -19 26 -35 0 -56 -17 -15 -18 -17 -3 -18 9 0 20 5 23 10 5
8 11 7 21 -1 19 -15 61 -3 68 19 5 14 14 17 36 14 25 -3 30 0 36 22 3 14 12
26 20 26 10 0 9 -10 -7 -40 -12 -23 -19 -44 -15 -47 7 -7 6 -9 34 37 14 23 22
29 22 18 0 -21 20 -24 38 -6 16 16 17 -5 2 -33 -9 -16 -7 -19 10 -19 18 0 20
6 20 55 0 45 -4 59 -25 79 -21 21 -24 29 -15 46 6 11 17 20 25 20 17 0 20 37
5 60 -8 12 -10 12 -10 1 0 -8 -3 -12 -6 -9 -3 4 -1 16 6 27 9 18 8 21 -10 21
-14 0 -20 -7 -21 -22 0 -18 -3 -16 -14 12 -18 48 -18 85 1 104 22 22 43 20 54
-6 6 -16 9 -18 9 -7 1 26 -26 42 -59 35 -26 -5 -30 -3 -30 17 0 12 5 29 10 37
8 12 13 13 30 2 17 -10 20 -10 20 3 0 8 7 15 15 15 8 0 15 5 15 10 0 6 -5 10
-11 10 -11 0 -9 16 6 53 6 14 2 17 -19 17 -33 0 -33 10 0 49 21 26 25 38 21
83 l-3 53 -2 -51 c-2 -61 -23 -87 -40 -50 -9 19 -8 27 4 36 16 14 19 56 4 65
-17 11 -11 23 15 29 23 6 25 11 25 61 0 48 -3 55 -20 55 -10 0 -24 9 -30 21
-16 28 -7 33 15 9 10 -11 22 -20 27 -20 4 0 8 45 8 100 0 97 -1 100 -22 100
-66 1 -67 60 -4 119 14 14 26 28 26 32 0 3 -19 7 -41 7 -48 1 -54 6 -64 50 -5
25 -3 32 9 32 8 0 19 7 24 15 7 13 14 14 36 5 15 -5 29 -10 32 -10 2 0 4 70 4
155 0 136 -2 155 -17 164 -17 10 -17 12 -1 25 26 20 23 62 -4 70 l-23 6 22 19
c22 18 23 26 23 161 0 123 -2 141 -15 130 -8 -6 -21 -10 -29 -8 -13 2 -12 9 6
37 19 30 23 32 29 15 7 -17 8 -17 8 4 1 35 -33 28 -52 -12 -29 -62 -93 -58
-70 5 9 23 9 29 0 26 -7 -2 -15 -17 -18 -33 l-7 -29 -1 28 c-1 31 -24 45 -45
28 -10 -9 -16 -9 -21 -1 -9 15 -255 12 -274 -3 -12 -9 -13 -9 -7 1 12 20 -163
17 -193 -5 -21 -14 -25 -14 -35 -2 -14 19 -86 22 -86 4 0 -23 -44 -27 -62 -4
-17 20 -18 20 -67 2 -48 -17 -81 -12 -51 7 11 7 8 10 -13 10 -24 0 -26 -2 -18
-19 8 -14 7 -22 -4 -31 -21 -18 -45 -5 -45 25 0 20 -5 25 -26 25 -16 0 -23 -4
-18 -12 5 -8 0 -9 -15 -5 -13 3 -20 3 -17 0 3 -3 -1 -12 -9 -20 -21 -21 -18
-44 5 -50 20 -5 20 -7 4 -24 -9 -10 -21 -16 -25 -13 -5 3 -9 0 -9 -5 0 -6 -7
-11 -15 -11 -14 0 -14 3 1 24 8 14 14 36 12 49 -1 13 4 33 12 43 13 17 12 17
-9 -1 -20 -16 -23 -17 -18 -4 4 13 1 16 -13 12 -10 -3 -21 0 -24 6 -4 6 -31
11 -61 11 -47 0 -54 -3 -57 -21 -7 -48 -82 -51 -94 -5 -5 21 -11 24 -42 22
-21 -2 -47 -6 -59 -10 -12 -4 -24 -2 -28 4 -3 5 -35 10 -70 10 -56 0 -64 -2
-70 -21 -6 -17 -9 -19 -17 -8 -8 11 -8 10 -4 -4 11 -35 -11 -57 -57 -55 -52 2
-84 21 -102 62 -11 26 -13 28 -14 9 -1 -14 -17 -33 -47 -54 -81 -55 -154 -62
-154 -14 0 34 54 73 110 78 41 4 40 4 -10 4 -38 0 -61 -6 -73 -18z m488 -105
c41 -37 47 -74 13 -74 -29 0 -70 27 -109 71 -36 40 -32 31 16 -40 19 -29 35
-60 35 -70 1 -16 24 -53 31 -48 2 1 -2 -4 -10 -10 -18 -16 -41 -17 -41 -2 0 6
7 8 16 5 12 -5 15 -2 10 10 -3 8 -6 17 -6 20 0 2 -7 1 -15 -3 -23 -8 -54 25
-86 91 l-28 58 31 33 31 32 39 -20 c21 -12 54 -35 73 -53z m-241 8 c0 -12 3
-19 8 -16 4 3 8 11 8 19 0 25 38 4 51 -29 11 -29 29 -169 20 -160 -2 2 -10 -1
-18 -7 -29 -25 -63 42 -63 125 0 22 -2 37 -4 35 -7 -9 -13 -98 -6 -94 10 6 25
-74 16 -82 -3 -4 -6 1 -6 11 0 10 -5 26 -11 38 -11 20 -11 20 -34 -2 -71 -67
-74 63 -4 161 23 33 44 34 43 1z m314 -66 c32 -44 71 -63 91 -43 17 17 13 -15
-5 -41 -8 -12 -10 -22 -5 -22 21 0 10 -20 -14 -26 -14 -3 -25 -10 -25 -15 0
-13 7 -11 35 7 17 11 25 12 25 5 0 -7 5 -9 12 -5 6 4 8 3 5 -3 -4 -6 0 -16 8
-23 13 -11 11 -16 -15 -40 -23 -22 -29 -35 -28 -64 1 -20 4 -32 8 -25 6 8 9 8
14 0 4 -6 4 -16 0 -23 -5 -7 -3 -8 6 -3 8 5 11 3 8 -6 -8 -22 -74 -12 -93 14
-7 9 -15 14 -18 10 -4 -3 -13 0 -22 7 -11 9 -12 16 -5 25 8 10 5 17 -12 29
-26 19 -21 20 18 6 24 -9 25 -9 14 5 -11 13 -10 14 5 8 14 -5 17 -3 12 10 -3
9 1 23 9 32 9 8 11 15 6 15 -5 0 -8 10 -7 23 1 12 3 29 4 37 1 13 2 13 11 0 7
-12 9 -10 7 7 -1 21 -2 21 -19 6 -24 -22 -36 -8 -14 16 14 15 15 21 4 27 -7 4
-10 4 -6 0 3 -4 -3 -17 -13 -27 -14 -14 -26 -18 -42 -13 -12 5 -27 7 -33 6 -7
-1 -17 11 -22 27 -9 25 -8 29 4 24 8 -3 14 -10 14 -16 0 -5 8 -3 18 6 10 10
24 17 31 17 7 0 9 5 6 10 -3 6 -1 10 5 10 6 0 4 10 -6 25 -27 42 -9 28 24 -19z
m583 -26 c4 0 6 -6 3 -13 -2 -7 2 -27 11 -43 8 -16 15 -49 15 -74 l0 -45 20
43 c20 44 43 52 48 16 1 -10 -8 -37 -21 -59 -24 -42 -54 -55 -49 -20 2 12 -1
16 -5 10 -4 -6 -19 -12 -32 -12 -31 -2 -61 -31 -61 -58 0 -19 -7 -24 -37 -28
-45 -5 -52 0 -55 36 -1 15 -5 27 -9 27 -4 0 -9 6 -12 14 -5 13 -1 13 28 0 48
-20 92 -18 104 5 6 10 8 21 4 24 -3 4 0 14 8 23 12 15 14 14 20 -3 7 -16 8
-15 8 5 1 16 -5 22 -19 22 -11 0 -20 4 -20 9 0 5 -8 8 -17 7 -11 0 -17 6 -17
17 1 9 -2 17 -7 17 -5 0 -9 9 -9 20 0 28 19 25 30 -5 5 -14 15 -25 22 -24 10
0 10 2 1 6 -15 5 -18 33 -3 33 5 0 14 -8 19 -17 10 -17 10 -17 11 0 0 9 -4 17
-10 17 -5 0 -10 8 -10 18 0 14 -2 14 -9 3 -6 -9 -16 -11 -27 -7 -18 7 -18 8 0
21 10 8 23 12 27 9 5 -3 9 0 9 6 0 7 7 9 16 6 9 -3 20 -6 25 -6z m-782 -44
c-5 -6 -2 -17 8 -28 12 -14 19 -15 30 -7 11 9 12 8 7 -4 -4 -12 2 -20 20 -27
33 -12 34 -29 1 -22 -14 2 -25 0 -25 -7 0 -6 10 -10 23 -8 17 1 22 -3 21 -20
-1 -16 4 -23 17 -23 11 0 19 -5 19 -11 0 -5 -4 -8 -9 -5 -5 3 -14 -1 -21 -9
-10 -12 -10 -15 0 -15 7 0 10 -7 7 -14 -4 -10 -1 -13 8 -10 8 3 12 11 9 18 -3
7 3 19 12 27 16 13 16 12 7 -6 -6 -11 -9 -25 -6 -31 2 -5 -11 -17 -28 -25 -18
-8 -39 -25 -48 -38 -15 -24 -15 -24 8 -10 57 34 67 39 83 39 25 0 51 -55 39
-79 -12 -21 -60 -41 -99 -41 -25 0 -25 0 -7 20 14 16 16 23 7 32 -9 9 -15 9
-24 0 -7 -7 -15 -12 -18 -12 -11 0 -5 47 9 63 7 10 10 17 6 17 -4 0 -3 6 3 13
5 6 12 30 14 53 5 37 2 42 -23 53 -25 11 -27 15 -18 33 6 11 9 21 7 22 -2 1
-15 7 -29 14 -20 11 -26 22 -28 55 -2 39 -1 41 13 22 9 -12 11 -24 5 -29z
m941 -117 c0 -20 -40 -68 -62 -75 -18 -5 -14 -9 27 -23 27 -9 50 -21 52 -27 6
-19 -44 -35 -74 -24 -25 9 -26 8 -11 -3 17 -13 17 -15 -2 -32 -11 -10 -22 -26
-25 -36 -10 -29 -33 -22 -40 12 -8 37 -1 46 22 28 17 -13 17 -13 3 5 -12 16
-12 20 0 30 16 12 22 56 8 56 -17 0 -7 26 22 56 16 18 27 33 25 35 -2 2 10 5
26 6 16 1 29 -3 29 -8z m-285 -202 c12 -29 28 -53 36 -54 23 -4 51 24 58 58
10 48 27 46 40 -5 6 -25 15 -48 21 -51 5 -3 10 -12 10 -18 0 -8 -3 -7 -9 2 -7
11 -12 7 -25 -15 l-15 -29 -1 39 c0 22 -3 37 -6 33 -9 -9 -10 -96 -1 -90 8 5
-1 -67 -10 -77 -5 -5 -27 29 -29 45 -1 6 -2 27 -3 48 -1 43 -21 42 -21 0 0
-25 -1 -26 -20 -8 -11 10 -17 22 -14 27 3 4 2 7 -3 6 -10 -4 -12 0 -28 69 -25
102 -16 110 20 20z m736 -63 c17 -37 21 -40 49 -36 35 5 65 -16 74 -51 4 -17
13 -22 40 -23 35 -1 86 -27 86 -44 0 -16 -34 -12 -84 10 -50 21 -62 19 -18 -4
37 -20 72 -54 72 -71 0 -25 -31 -16 -66 19 -41 41 -42 38 -8 -14 29 -43 27
-84 -2 -59 -8 7 -24 30 -35 52 -20 37 -20 40 -2 60 9 12 11 16 3 10 -8 -7 -27
-13 -42 -13 -26 0 -28 -3 -28 -37 0 -46 -19 -87 -43 -91 -26 -5 -22 45 7 93
22 36 23 42 10 57 -9 9 -14 30 -12 49 2 25 -4 40 -30 68 -35 38 -49 72 -37 91
10 17 44 -17 66 -66z m-559 -110 c1 -25 6 -33 16 -29 10 4 12 0 8 -11 -5 -14
-4 -15 9 -4 18 15 50 5 39 -12 -5 -8 -2 -9 9 -5 21 8 46 -31 27 -43 -7 -4 -9
-13 -6 -19 4 -6 3 -11 -2 -11 -5 0 -12 9 -15 20 -5 21 -27 28 -27 9 0 -5 4 -8
9 -5 5 3 11 -4 14 -15 6 -21 32 -22 32 -1 0 7 4 12 8 12 4 -1 15 6 23 15 9 8
29 15 46 15 30 0 30 0 10 -17 -22 -19 -69 -99 -52 -88 5 3 10 2 10 -4 0 -5 3
-16 6 -24 3 -9 -3 -16 -15 -20 -14 -3 -21 0 -22 9 -1 8 -2 20 -3 27 0 6 -8 12
-16 12 -8 0 -21 4 -27 8 -7 5 -17 6 -22 3 -4 -3 -7 7 -5 23 2 19 -1 28 -11 28
-10 0 -11 -5 -4 -18 12 -24 11 -29 -6 -29 -9 0 -15 10 -16 23 0 12 -3 16 -6
10 -2 -7 -9 -13 -14 -13 -6 0 -8 4 -4 9 3 5 0 13 -6 17 -8 4 -9 3 -5 -4 4 -7
1 -12 -6 -12 -7 -1 -1 -8 15 -16 15 -8 27 -19 27 -24 0 -6 0 -13 0 -17 0 -5
-11 -8 -24 -8 -14 -1 -28 -4 -32 -8 -4 -4 2 -7 13 -7 12 0 24 -7 27 -16 7 -19
-10 -44 -31 -44 -12 0 -13 -3 -4 -13 6 -8 8 -17 5 -20 -4 -3 5 -9 20 -13 31
-7 35 -20 6 -20 -11 0 -20 4 -20 8 0 4 -5 8 -11 8 -6 0 -9 -7 -5 -15 4 -11 -2
-15 -22 -15 -25 1 -25 2 -9 14 9 7 17 17 17 21 0 5 -3 5 -7 2 -3 -4 -17 3 -30
15 -42 40 -25 130 30 151 13 5 16 13 11 32 -5 19 -2 25 11 25 15 0 16 2 4 17
-12 14 -12 16 0 8 11 -6 13 -4 8 7 -3 9 0 21 6 27 7 7 7 11 1 11 -6 0 -17 -12
-24 -26 -13 -24 -14 -24 -21 -5 -8 20 3 73 24 122 l11 27 13 -25 c7 -13 14
-40 15 -59z m390 35 c12 -23 18 -53 17 -94 l-1 -60 -11 42 c-13 47 -39 79 -56
69 -14 -9 -13 -42 3 -88 13 -35 12 -37 -5 -28 -60 33 -100 148 -63 181 42 38
89 29 116 -22z m-82 -161 l30 -21 -30 -19 c-34 -20 -39 -47 -10 -55 26 -7 25
-18 -2 -37 -33 -24 -84 -20 -102 6 -17 23 -21 84 -8 105 9 14 62 43 80 43 7 0
26 -10 42 -22z m-428 -103 c-3 -49 0 -65 17 -87 l21 -26 -32 -20 c-50 -30 -61
-31 -80 -6 -44 55 4 213 60 202 14 -3 16 -13 14 -63z m-102 -34 c0 -78 0 -79
-27 -84 -31 -6 -73 26 -99 75 -19 36 -18 48 5 48 11 0 26 9 33 19 12 17 62 32
81 23 4 -2 7 -38 7 -81z m574 23 c-10 -56 27 -90 45 -41 5 12 13 33 18 47 l10
25 12 -24 c10 -18 10 -29 0 -54 -7 -17 -14 -43 -15 -57 -1 -14 -2 -32 -3 -41
-3 -44 -68 -22 -96 31 -19 36 -19 61 -1 105 17 41 37 47 30 9z m-173 -16 c1
-7 1 -16 1 -19 -1 -4 14 -10 33 -13 37 -7 40 -12 25 -36 -6 -10 -10 -11 -10
-2 0 6 -8 12 -17 12 -15 0 -16 2 -3 10 8 5 10 10 4 10 -6 0 -19 -9 -29 -20
-10 -12 -24 -19 -31 -16 -8 3 -7 -7 4 -35 8 -21 19 -39 24 -39 11 0 10 7 -4
29 -14 23 -3 53 18 49 9 -2 26 -15 37 -31 17 -22 19 -29 8 -40 -11 -9 -13 -9
-7 1 4 7 1 12 -8 12 -10 0 -13 -6 -9 -15 3 -9 13 -15 22 -13 12 3 16 15 16 56
0 36 5 56 15 62 25 16 28 12 35 -39 4 -28 13 -55 21 -62 7 -6 12 -15 9 -19 -7
-12 84 -17 97 -5 8 7 9 5 4 -8 -3 -10 -6 -23 -6 -28 0 -6 -4 -8 -9 -4 -5 3
-12 1 -16 -5 -3 -5 1 -10 9 -10 9 0 16 -4 16 -10 0 -5 -17 -10 -37 -10 -27 0
-34 3 -24 9 12 8 8 11 -15 16 -55 12 -58 15 -45 28 8 8 14 8 19 2 8 -12 27
-13 38 -2 4 4 -2 8 -14 9 -12 0 -28 1 -34 2 -17 1 -29 32 -22 51 4 8 2 15 -4
15 -5 0 -9 -12 -8 -27 0 -16 -3 -28 -9 -28 -5 0 -16 -4 -22 -8 -8 -5 -22 -2
-35 7 -16 12 -25 13 -35 4 -14 -11 -28 -4 -28 15 0 18 -35 21 -36 3 -1 -9 -2
-21 -3 -28 0 -6 -7 -13 -15 -16 -9 -3 -11 0 -6 8 5 8 4 11 -3 6 -6 -4 -9 -13
-6 -20 3 -7 -2 -16 -10 -19 -9 -4 -16 -1 -16 6 0 8 -3 7 -9 -2 -7 -12 -13 -12
-24 -3 -7 7 -16 9 -19 7 -9 -9 -34 38 -36 68 -1 15 4 28 11 29 47 5 62 2 68
-17 5 -13 7 -7 6 18 0 20 -4 37 -9 37 -5 0 -7 -4 -3 -9 3 -5 1 -12 -4 -15 -5
-3 -11 1 -15 9 -3 8 -13 15 -22 15 -14 0 -14 3 -4 15 11 13 10 14 -5 9 -13 -5
-16 -4 -11 4 15 24 40 12 38 -18 0 -3 22 -6 50 -6 31 -1 45 2 36 7 -8 5 -8 9
-2 9 6 0 17 14 24 30 12 30 49 43 51 18z m-581 -18 c4 0 31 -18 60 -41 42 -33
50 -44 44 -62 -7 -25 -27 -50 -22 -28 2 8 -11 20 -29 27 -29 12 -33 12 -33 -1
0 -9 10 -20 23 -26 17 -7 14 -8 -17 -3 -73 11 -115 54 -93 96 23 43 29 49 44
44 8 -3 18 -6 23 -6z m360 -121 c0 -11 6 -33 14 -47 15 -29 28 -64 26 -72 0
-3 -9 -4 -19 -2 -27 4 -47 -24 -31 -43 14 -17 50 -3 50 20 0 17 16 20 25 5 3
-5 25 -10 48 -10 55 0 71 -11 62 -41 -5 -19 -4 -21 4 -9 9 13 11 13 11 -2 0
-14 -8 -16 -45 -12 -50 4 -85 19 -85 35 0 6 -5 7 -10 4 -6 -4 -8 -11 -5 -16
10 -15 -24 -22 -40 -9 -13 11 -14 10 -9 -6 7 -18 6 -18 -15 1 -14 12 -20 26
-17 38 8 30 -4 47 -33 46 l-26 -1 25 -7 c36 -10 33 -37 -5 -34 -45 4 -55 10
-55 37 0 37 32 51 71 32 29 -14 30 -14 24 2 -15 37 -17 82 -5 97 18 22 40 18
40 -6z m-95 -11 c-23 -13 -39 -36 -40 -58 0 -8 -9 -15 -20 -15 -16 0 -19 -6
-17 -25 2 -14 9 -31 15 -39 6 -7 10 -28 8 -46 -1 -18 3 -36 9 -40 12 -7 -52
-55 -75 -55 -7 0 -19 13 -26 29 -9 19 -16 26 -21 18 -5 -8 -13 -8 -31 2 l-24
13 21 23 c20 23 21 23 24 5 6 -34 22 -22 22 15 0 52 28 115 52 115 30 0 58 19
58 40 0 20 13 28 45 29 l20 0 -20 -11z m-150 -38 c17 -19 17 -21 0 -61 -24
-51 -67 -99 -91 -99 -16 0 -15 2 4 20 12 12 22 30 22 42 0 18 -4 20 -41 15
-35 -5 -40 -3 -33 11 4 10 8 28 9 42 1 20 10 27 41 37 56 16 69 16 89 -7z
m545 -47 c0 -15 1 -15 18 0 23 21 33 21 58 2 18 -14 17 -15 -10 -9 -40 9 -26
-10 25 -37 32 -16 38 -23 29 -34 -17 -21 -48 -6 -74 37 -18 30 -25 36 -30 23
-3 -9 -11 -13 -17 -9 -7 4 -6 -3 2 -17 l13 -24 6 25 c6 24 7 23 13 -9 4 -19 5
-36 2 -39 -3 -3 -5 0 -5 6 0 7 -4 12 -9 12 -5 0 -7 -17 -4 -39 4 -25 1 -41 -7
-46 -10 -6 -12 0 -7 24 5 23 2 37 -9 48 -8 9 -13 23 -10 32 5 14 5 14 -7 1 -7
-8 -21 -20 -32 -26 -14 -8 -21 -25 -25 -60 -5 -52 -15 -50 -18 3 -1 17 2 34 8
38 16 10 12 28 -5 21 -43 -16 9 54 60 82 28 16 35 15 35 -5z m-793 -135 c12
-11 24 -31 27 -44 5 -20 13 -24 44 -24 38 -1 105 -29 69 -30 -9 0 -25 -5 -35
-11 -14 -9 -25 -8 -48 4 -28 15 -31 14 -42 -4 -7 -11 -24 -24 -38 -29 -23 -9
-24 -12 -10 -25 18 -18 29 -69 24 -111 -2 -21 -8 -29 -23 -29 -17 0 -19 6 -17
33 2 18 -2 39 -8 47 -8 9 -10 28 -6 50 5 25 3 35 -5 35 -27 0 -59 43 -59 80 0
79 69 110 127 58z m677 -58 c-4 -25 -3 -31 5 -21 8 12 11 9 16 -15 10 -43 13
-51 14 -31 1 25 21 21 22 -5 1 -17 2 -19 6 -5 10 39 23 13 24 -50 1 -38 4 -79
9 -93 4 -14 5 11 2 56 -3 57 -1 83 7 89 20 12 25 -3 24 -73 0 -37 1 -53 3 -37
10 73 16 95 26 95 10 0 7 -86 -6 -140 -3 -14 4 6 18 43 29 83 41 97 32 37 l-6
-45 19 43 c24 50 35 54 26 10 l-6 -33 19 33 c20 37 36 33 21 -5 -15 -40 -9
-41 12 0 23 44 34 48 25 10 -4 -18 -3 -23 2 -14 7 9 12 10 16 2 9 -15 -23 -73
-37 -68 -7 2 -21 -3 -31 -12 -18 -15 -19 -15 -13 2 9 23 0 22 -13 -2 -9 -17
-7 -19 18 -16 15 2 44 11 64 19 43 18 67 20 88 6 13 -9 13 -11 1 -19 -8 -5
-20 -7 -28 -4 -8 3 -13 2 -12 -3 3 -20 -2 -23 -27 -14 -32 12 -90 -12 -99 -41
-6 -19 -7 -18 -26 3 l-19 23 16 -32 c16 -35 12 -53 -12 -53 -9 0 -15 12 -16
38 l-1 37 -4 -37 c-2 -20 -11 -39 -19 -42 -13 -5 -14 2 -10 42 l6 47 -13 -50
-12 -50 -12 39 c-7 22 -9 44 -6 49 3 6 1 7 -5 3 -6 -3 -17 3 -25 14 -7 11 -16
17 -20 14 -3 -3 -14 -1 -24 5 -12 7 -14 10 -4 11 8 0 12 3 9 6 -11 10 -86 -45
-100 -73 -13 -27 -48 -45 -48 -24 0 16 61 82 95 103 16 10 25 18 20 18 -13 0
-49 -24 -93 -62 -37 -31 -52 -35 -52 -13 0 8 19 28 42 45 46 34 44 37 -9 15
-46 -19 -61 -19 -41 1 9 9 40 25 70 35 56 19 53 24 -25 34 -28 4 -45 10 -41
16 3 6 18 8 33 4 14 -3 35 -8 46 -11 13 -3 10 1 -7 11 -34 19 -36 29 -5 19 22
-6 22 -6 -3 21 -24 27 -24 27 -2 16 20 -11 26 -23 23 -43 0 -5 3 -8 8 -8 13 0
21 37 21 98 0 37 3 51 11 46 9 -5 10 1 5 22 -5 21 -4 25 4 14 5 -8 7 -31 4
-50z m-1115 -57 c2 -1 -4 -14 -13 -28 -9 -14 -12 -25 -7 -25 5 0 13 -9 16 -20
4 -13 15 -20 31 -20 47 0 21 -54 -34 -70 -53 -14 -56 -13 -37 16 9 15 12 23 5
19 -22 -13 -60 4 -60 28 -1 22 -1 22 -16 2 -13 -17 -16 -18 -25 -5 -5 8 -8 35
-7 60 l3 45 36 -3 c23 -1 41 3 48 12 13 15 15 15 60 -11z m355 -129 c22 -21
20 -29 -10 -53 -32 -25 -99 -29 -108 -6 -3 8 -11 15 -18 15 -9 0 -9 -3 0 -12
18 -18 14 -38 -7 -38 -10 0 -21 -7 -25 -15 -7 -20 -46 -19 -46 1 0 10 -6 14
-14 11 -8 -3 -20 1 -27 10 -11 12 -10 17 3 27 11 8 15 20 12 33 -7 25 10 37
33 24 10 -5 24 -6 33 -1 18 10 34 2 43 -20 4 -12 6 -12 6 2 2 33 98 50 125 22z
m-544 -61 c0 -3 -7 -15 -17 -25 -15 -17 -15 -18 9 -18 14 0 30 -6 35 -12 13
-18 16 -78 3 -78 -5 0 -10 -4 -10 -10 0 -5 7 -7 16 -3 11 4 15 15 12 35 -4 21
0 32 14 39 10 5 22 7 27 4 5 -3 11 5 13 17 3 21 6 19 36 -21 41 -56 41 -78 0
-96 -18 -8 -27 -14 -20 -15 7 0 12 -14 12 -37 l0 -36 -23 21 c-28 27 -47 29
-23 3 16 -18 16 -18 -9 -14 -13 3 -22 9 -20 13 6 10 -14 24 -35 25 -8 0 -14 8
-14 18 1 9 -2 17 -6 17 -4 0 -10 17 -13 37 -5 30 -2 42 16 62 l22 25 -29 -22
c-45 -34 -62 -29 -69 20 -3 23 -3 46 -1 50 6 10 74 11 74 1z m1780 2 c0 -3 -7
-17 -16 -30 -22 -33 -9 -48 34 -42 19 4 44 1 54 -4 19 -10 19 -12 -8 -40 -32
-33 -50 -38 -34 -9 18 33 -9 24 -28 -9 -13 -24 -49 -51 -66 -51 -6 0 19 125
28 138 4 7 1 12 -8 12 -10 0 -16 -9 -16 -22 0 -18 -2 -20 -10 -8 -5 8 -12 12
-15 8 -4 -3 -1 -15 6 -25 15 -26 5 -83 -22 -117 -28 -35 -40 -33 -28 6 11 40
11 38 0 38 -9 0 -22 -32 -25 -59 0 -8 -6 -16 -12 -18 -13 -4 -14 70 -1 83 11
12 8 24 -7 24 -9 0 -12 7 -9 19 3 10 -1 22 -7 26 -9 5 -11 -7 -8 -45 l5 -53
-23 26 c-19 22 -21 32 -14 58 17 60 53 85 92 65 15 -8 30 -10 35 -5 4 4 26 14
48 22 47 17 55 19 55 12z m-1460 -180 c13 -15 10 -71 -6 -110 -5 -13 8 -6 40
23 59 51 90 56 84 13 -2 -16 0 -28 6 -27 6 1 12 -3 13 -9 2 -5 -7 -10 -18 -10
-11 0 -45 -22 -74 -48 -29 -26 -58 -47 -64 -47 -19 0 -22 20 -6 52 l16 33 -20
-25 c-11 -14 -21 -28 -21 -32 0 -5 -9 -8 -19 -8 -14 0 -21 8 -24 28 -4 26 -4
26 -6 -4 -2 -46 -28 -51 -45 -10 -21 50 -38 143 -31 166 16 50 75 -2 75 -67 0
-15 5 -35 10 -43 7 -11 10 -7 10 17 0 41 35 123 53 123 8 0 20 -7 27 -15z
m654 -120 c25 -27 36 -67 35 -124 -1 -33 -1 -34 -8 -10 -17 53 -30 68 -61 67
-16 -1 -30 -5 -30 -10 0 -5 5 -6 10 -3 6 4 10 -5 10 -20 0 -14 7 -39 15 -55 9
-17 12 -30 8 -30 -13 0 -58 52 -75 85 -18 35 -19 91 -1 88 7 -2 10 3 7 11 -5
14 11 22 49 25 10 0 28 -10 41 -24z"/>
</g>
</svg>
