<!-- Generator: Adobe Illustrator 18.1.1, SVG Export Plug-In  -->
<svg version="1.1"
	 xmlns="http://www.w3.org/2000/svg" xmlns:xlink="http://www.w3.org/1999/xlink" xmlns:a="http://ns.adobe.com/AdobeSVGViewerExtensions/3.0/"
	 x="0px" y="0px" width="234.52px" height="291px" viewBox="0 0 234.52 291" enable-background="new 0 0 234.52 291"
	 xml:space="preserve">
<defs>
</defs>
<g>
	<g>
		<path fill="#1D1D1B" d="M174.271,144.368l-68.672-33.895c-0.645-0.299-1.453-0.695-2.367-1.143
			c-6.315-3.083-12.281-5.853-15.913-5.853c-3.629,0-9.597,2.77-15.91,5.853c-0.918,0.448-1.723,0.844-2.413,1.164L0.369,144.368H0
			v70.409h174.635v-70.409H174.271z M40.585,171.141h-4.744v25.591h-6.329v-25.591h-4.743v-5.652h15.816V171.141z M96.135,196.732
			h-6.323v-13.226h-3.02v13.226h-6.325v-31.243h6.325v12.554h3.02v-12.554h6.323V196.732z M149.87,171.141h-6.087v6.711h5.368v5.557
			h-5.415v7.666h6.134v5.657h-12.365v-31.243h12.365V171.141z M10.139,144.368l60.726-29.975c0.664-0.307,1.498-0.716,2.441-1.176
			c3.873-1.892,11.08-5.413,14.011-5.413c2.933,0,10.14,3.521,14.015,5.413c0.942,0.461,1.778,0.869,2.395,1.155l60.767,29.996
			H10.139z"/>
		<g>
			<path fill="#1D1D1B" d="M86.509,249.08h-0.097c0,0-0.191,2.97-0.433,5.223l-0.763,7.621h2.488l-0.766-7.621
				C86.698,252.05,86.509,249.08,86.509,249.08z"/>
			<path fill="#1D1D1B" d="M0.037,220.59V291H234.52v-70.41H0.037z M40.585,248.07h-4.744v25.593h-6.329V248.07h-4.743v-5.651
				h15.816V248.07z M89.047,273.663l-0.816-6.421h-3.545l-0.813,6.421h-6.136l4.313-31.243h8.816l4.313,31.243H89.047z
				 M151.406,273.663h-5.656l-4.933-16.628h-0.097c0,0,0.333,2.492,0.333,4.599v12.029h-6.035v-31.243h5.656l4.932,17.057h0.1
				c0,0-0.339-2.539-0.339-4.694v-12.363h6.04V273.663z M203.217,273.663l-3.395-11.263l-0.771,1.963v9.299h-6.278v-31.243h6.278
				v12.554c0.144-1.58,0.38-2.876,0.813-4.072l3.117-8.482h6.42l-5.077,13.512l5.509,17.731H203.217z"/>
		</g>
		<path fill="#1D1D1B" d="M106.787,42.462c-0.205,0-0.391-0.014-0.588,0c-0.915,0-2.261,0-3.907,0V0l-4.326,0.037v42.424H76.671V0
			l-4.33,0.037v42.424c-1.82,0-3.191,0-3.899,0c-0.2-0.014-0.386,0-0.588,0c-4.482,0-8.11,3.628-8.11,8.11
			c0,0.066,0.001,0.131,0.002,0.196c0.001,0.044,0.003,0.088,0.005,0.133c0.001,0.018,0.001,0.036,0.002,0.054
			c0.107,2.298,1.168,4.346,2.797,5.756c3.491,3.557,17.439,17.722,18.966,18.908l0.008,0.003c0.827,0.85,1.85,1.487,2.981,1.912
			c0.015,2.816,0.026,6.708-0.021,6.719c-0.026,1.894-1.144,3.511-2.758,4.266c-0.207,0.057-0.422,0.112-0.629,0.178
			c-0.186,0.06-0.367,0.133-0.549,0.2c-5.876,2.163-9.971,7.995-9.462,14.74c0.537,7.123,6.395,12.904,13.523,13.355
			c6.914,0.438,12.865-3.952,14.801-10.129c0.425-1.377,0.663-2.839,0.663-4.355c0-0.759-0.076-1.495-0.191-2.227
			c-0.108-0.338-0.181-0.696-0.197-1.068c-0.005-0.069-0.022-0.136-0.022-0.204c0-0.84,0.254-1.627,0.688-2.277
			c0.057-0.081,0.128-0.144,0.186-0.22c0.073-0.129,0.128-0.272,0.128-0.427c0-0.469-0.385-0.848-0.853-0.856l-0.013-0.006
			c-0.165,0-0.312,0.065-0.439,0.15c-0.325,0.124-0.625,0.291-0.916,0.469c-1.705,1.042-2.875,2.876-2.964,5.001
			c-0.014,0-0.027,0-0.043,0c-0.218,3.831-3.419,6.86-7.334,6.734c-3.793-0.122-6.918-3.36-6.907-7.155
			c0.01-3.347,2.33-6.13,5.45-6.892c0.147-0.039,0.294-0.073,0.449-0.102c2.017-0.533,3.503-2.328,3.558-4.504
			c0-0.039,0.01-0.071,0.01-0.11c0-0.107-0.026-0.204-0.031-0.305l0.031,0.023V77.309c1.17-0.546,2.199-1.34,2.993-2.345
			c0.019-0.016,0.053-0.031,0.069-0.052c1.84-2.332,17.192-17.084,18.295-18.143c1.647-1.393,2.731-3.431,2.862-5.725
			c0-0.008,0.001-0.016,0.001-0.024c0.003-0.062,0.006-0.123,0.008-0.185c0-0.014,0.001-0.028,0.002-0.042
			c0.002-0.074,0.003-0.148,0.003-0.222C114.895,46.089,111.267,42.462,106.787,42.462z M68.874,54.223
			c-2.878,0.755-5.432-1.81-4.668-4.682c0.336-1.262,1.357-2.283,2.62-2.618c2.879-0.765,5.444,1.805,4.674,4.686
			C71.162,52.871,70.138,53.891,68.874,54.223z M107.805,54.223c-2.878,0.755-5.432-1.81-4.668-4.682
			c0.336-1.262,1.357-2.283,2.62-2.618c2.879-0.765,5.443,1.805,4.674,4.686C110.094,52.871,109.07,53.891,107.805,54.223z"/>
	</g>
</g>
</svg>